<svg width="122" height="122" viewBox="0 0 122 122" fill="none" xmlns="http://www.w3.org/2000/svg">
<path d="M11.0012 87.1939C11.0012 86.1523 11.8344 85.3093 12.861 85.3093C13.8877 85.3093 14.7208 86.1523 14.7208 87.1939V89.6727H38.8996L49.689 70.9403L28.3545 59.1908C21.8551 55.6202 18.7665 48.6009 21.4707 43.539L29.9465 27.7565C31.0425 25.7061 32.916 24.2349 35.3622 23.5025C38.8215 22.466 42.9341 23.0502 46.6277 25.0968L103.819 56.041C104.382 56.3463 104.897 56.967 104.943 57.6115C104.988 58.256 104.866 58.7498 104.46 59.4747L101.705 64.808L109.948 68.8359C110.393 69.0532 110.734 69.4402 110.896 69.9126C111.059 70.385 111.029 70.9026 110.815 71.3524L104.836 83.8909C104.515 84.5643 103.852 84.9563 103.16 84.9563C102.889 84.9563 102.614 84.896 102.355 84.7703L93.8768 80.6369C93.7813 80.5904 93.6957 80.5326 93.6127 80.4736L92.4745 82.676C91.3797 84.7226 89.5074 86.19 87.0612 86.9187C85.9403 87.2542 84.7513 87.4175 83.5288 87.4175C80.9771 87.4175 78.2854 86.6989 75.7821 85.3093L52.9585 72.7394L41.5728 92.5045C41.238 93.0837 40.6267 93.4393 39.9659 93.4393H14.7196V96.1155C14.7196 97.1557 13.8864 98 12.8598 98C11.8332 98 11 97.1557 11 96.1155C11 93.1204 11.0012 90.1795 11.0012 87.1939ZM95.4886 77.2409L102.293 80.559L106.655 71.4127L99.9782 68.1499L95.315 77.1781C95.3733 77.1982 95.4328 77.2133 95.4886 77.2409ZM77.565 82.0013C80.3708 83.5567 83.5275 84.0429 86.011 83.3029C87.0413 82.9963 88.43 82.3267 89.19 80.907L100.646 58.6292L44.8584 28.4123C42.0501 26.8595 38.8922 26.3758 36.4137 27.1183C35.3833 27.4261 33.9922 28.0995 33.2135 29.5544L24.739 45.3368C23.0416 48.5129 25.5077 53.3399 30.1275 55.8777L77.565 82.0013Z" fill="#1D1D20"/>
</svg>
