<svg width="513" height="662" viewBox="0 0 513 662" fill="none" xmlns="http://www.w3.org/2000/svg">
<path d="M297.244 612.464C295.906 619.5 295.374 626.5 293.031 632.825C289.989 641.033 282.948 645.993 274.819 648.516C265.89 651.288 256.692 653.231 247.553 655.266C244.516 655.943 241.297 655.813 238.16 656.003C226.861 656.686 215.558 657.32 204.26 658.028C198.095 658.415 191.942 658.991 185.776 659.335C179.863 659.664 173.936 660.043 168.021 659.952C166.708 659.931 158.505 661.12 147.026 661.931C144.797 662.087 141.75 661.931 137.918 661.931C125.657 661.931 130.255 661.931 117.228 661.931C104.966 660.861 100.002 661.067 95.7707 659.335C75.084 650.868 60.9542 650.784 54.7091 632.825C50.5534 620.873 58.4641 592.555 56.1641 570.816C54.8877 558.754 55.0553 545.101 53.4068 533.127C47.4365 489.761 38.4502 452.8 38.1501 452.549C38.1897 452.507 24.3706 453.58 23.4376 448.974C11.8588 391.82 5.60503 315.666 38.6067 295.95C56.844 284.513 88.8899 273.321 127.403 263.725C133.001 262.33 138.541 255.082 144.258 253.785C145.537 253.494 143.302 248.976 150.199 255.892C156.329 258.965 154.03 260.502 160.927 264.723C167.058 266.65 188.515 294.204 200.776 288.935C216.868 282.019 243.69 253.586 250.454 240.964C256.403 237.369 261.666 243.612 269.814 243.612C328.803 236.656 372.558 356.533 380.279 381.024C370.072 395.795 309.593 405.738 309.159 405.569C304.433 399.724 294.936 382.19 291.868 372.326C288.711 362.176 287.623 385.193 287.402 393.35C287.116 403.9 288.059 414.488 288.579 425.055C288.921 432.019 289.489 438.971 289.887 445.934C290.585 458.157 291.323 470.381 291.868 482.612C292.252 491.219 292.086 499.856 292.639 508.449C293.205 517.255 294.376 526.02 295.23 534.807C295.731 539.975 296.189 545.148 296.557 550.327C296.868 554.694 297.305 559.079 297.182 563.442C296.945 571.897 296.063 580.341 296.026 588.792C296.007 593.206 297.481 597.606 297.786 602.047C298.015 605.38 297.453 608.767 297.244 612.464Z" fill="#F9ED37"/>
<path fill-rule="evenodd" clip-rule="evenodd" d="M146.664 249.919C146.664 249.919 153.075 241.031 155.287 236.398C157.5 231.766 159.582 222.877 159.582 222.877C159.582 222.877 205.325 288.462 198.087 289.317C183.618 291.022 146.664 249.919 146.664 249.919Z" fill="#E5E5E5"/>
<path d="M342.314 453.148C335.115 441.739 319.76 416.528 312.715 405.294C320.416 404.361 371.566 392.719 375.13 385.536C378.029 386.292 382.047 397.083 384.781 398.426C389.871 400.927 391.13 386.64 400.868 369.424C416.203 342.316 440.118 306.263 453.631 283.705C458.138 273.883 456.68 260.069 456.205 257.925C454.444 249.991 449.309 243.218 443.347 237.782C439.479 234.256 440.219 228.513 444.622 226.345C447.874 224.743 450.566 224.498 454.274 226.345C458.51 228.454 461.013 230.148 463.926 234.079C464.319 234.609 466.59 237.369 467.143 237.782C467.41 237.113 470.769 228.959 471.004 228.278C473.351 221.45 474.866 216.975 477.438 210.232C479.711 204.275 480.37 201.104 483.229 195.408C484.172 193.531 486.064 191.504 487.734 191.541C490.192 191.597 490.582 191.991 490.951 194.764C491.147 196.235 491.316 198.463 491.594 199.92C491.717 200.559 492.656 202.522 492.881 203.142C493.327 202.611 495.614 200.414 496.098 199.92C497.558 198.429 497.6 197.804 499.316 196.697C501.672 195.176 503.366 196.352 503.176 199.275C502.914 203.312 502.613 207.246 501.636 211.151C499.878 218.173 498.129 223.901 496.098 230.856C495.978 231.27 495.45 234.271 495.455 234.723C495.912 234.478 498.476 233.812 498.672 233.434C499.951 230.961 502.208 226.363 503.176 223.766C504.743 219.569 504.252 219.516 507.681 216.677C508.477 216.016 509.832 215.082 510.898 214.743C511.205 215.73 511.769 215.191 511.541 216.032C509.891 222.125 509.336 226.932 507.037 232.79C501.249 247.546 495.098 261.973 489.021 276.616C485.508 285.079 481.707 291.822 478.725 300.462C475.685 309.271 472.475 318.614 469.717 327.531C466.791 336.985 463.999 347.195 460.709 356.534C455.707 370.727 451.756 384.584 445.909 398.426C441.338 409.243 435.807 419.859 429.823 430.007C425.338 437.611 420.38 446.307 414.796 453.148C411.518 457.166 406.861 460.096 402.707 463.371C396.059 468.611 388.509 471.955 380.245 473.844C370.732 476.019 362.289 474.327 355.19 467.408C350.891 463.218 346.734 457.554 342.314 453.148Z" fill="white"/>
<path fill-rule="evenodd" clip-rule="evenodd" d="M119.873 173.575C118.957 175.424 119.016 177.042 120.209 178.613C120.744 179.316 121.323 179.987 121.902 180.658C122.523 181.379 123.144 182.1 123.709 182.86C124.566 184.01 125.451 185.143 126.335 186.278C128.659 189.258 130.984 192.24 132.808 195.5C135.384 200.105 138.368 203.501 143.784 204.476C145.982 204.873 146.811 206.626 147.075 208.936C147.441 212.15 148.04 215.407 149.109 218.446C149.874 220.622 151.896 222.062 154.472 221.785C155.68 221.655 156.882 221.45 158.084 221.247C159.934 220.934 161.781 220.62 163.638 220.577C165.416 220.534 167.723 220.998 168.919 222.143C172.114 225.204 175.056 228.531 177.995 231.856C178.604 232.542 179.21 233.23 179.82 233.914C180.045 234.167 180.265 234.421 180.484 234.675C182.63 237.15 184.626 239.451 188.892 237.974C193.956 236.22 199.282 235.434 204.776 235.792C209.815 236.119 211.782 234.415 213.333 229.489C213.491 228.983 213.627 228.467 213.762 227.951C214.021 226.954 214.281 225.958 214.715 225.046C214.88 224.699 215.043 224.349 215.207 223.996C216.103 222.067 217.018 220.094 218.4 218.579C220.896 215.841 224.132 216.262 227.447 217.436C231.181 218.758 233.116 217.948 234.727 214.559C235.408 213.125 235.633 213.144 236.88 214.062C237.888 214.805 239.476 215.147 240.762 215.053C243.943 214.817 247.128 214.373 250.246 213.708C251.372 213.468 252.865 212.577 253.251 211.61C253.722 210.427 254.195 209.246 254.669 208.062C257.344 201.395 260.022 194.719 262.164 187.877C265.648 176.752 268.243 165.36 268.237 153.608C268.233 145.736 268.002 137.862 267.77 129.989C267.712 127.994 267.653 125.999 267.598 124.005C267.573 123.058 267.55 122.11 267.527 121.163V121.161C267.424 116.843 267.32 112.519 266.886 108.233C266.103 100.497 265.093 92.7841 264.084 85.0726L264.081 85.0521C263.912 83.7624 263.745 82.4739 263.577 81.1842C263.083 77.3853 262.507 73.5967 261.932 69.808L261.931 69.8042C261.741 68.5528 261.55 67.3014 261.363 66.05L260.958 63.3351C260.059 57.3121 259.16 51.2891 258.209 45.2738C258.172 45.0386 258.139 44.7957 258.104 44.549C257.931 43.2977 257.744 41.9568 257.038 41.1106C256.405 40.3539 255.774 39.5959 255.144 38.8379C251.107 33.9832 247.059 29.1145 242.557 24.7225C239.023 21.2764 234.765 18.5078 230.585 15.7903L230.041 15.4375C218.616 8.00465 205.819 4.65954 192.367 3.77629C188.682 3.5347 184.977 3.58966 181.27 3.6459C179.052 3.67913 176.833 3.71237 174.617 3.68169C172.594 3.65485 171.499 4.29779 170.186 6.05919C168.445 8.39706 165.842 10.2786 163.271 11.7818C156.854 15.5359 151.205 19.9458 146.868 26.1452C141.169 34.2888 135.948 42.6675 132.537 52.0087C129.904 59.2128 128.084 66.6125 127.457 74.3623C127.253 76.8651 126.749 79.3346 126.243 81.8054C125.265 86.586 124.285 91.3729 125.494 96.4129C126.015 98.5859 126.317 100.814 126.621 103.039C126.975 105.649 127.33 108.258 128.035 110.771C128.165 111.234 128.295 111.695 128.425 112.157C130.674 120.139 132.88 127.972 132.441 136.562C131.968 145.796 128.687 153.863 124.886 162.603C124.401 163.676 123.922 164.752 123.444 165.828C122.29 168.428 121.135 171.028 119.873 173.575ZM270.291 112.778C270.296 112.857 270.287 112.943 270.278 113.029C270.261 113.181 270.246 113.33 270.309 113.435C270.503 113.76 270.737 114.06 270.972 114.36C271.064 114.479 271.156 114.597 271.247 114.717C271.346 114.629 271.45 114.543 271.554 114.459C271.778 114.276 272.002 114.091 272.184 113.871C272.699 113.247 273.216 112.627 273.734 112.006L273.736 112.005C275.211 110.238 276.688 108.47 278.073 106.635C281.127 102.586 284.112 98.4837 287.037 94.341C288.762 91.8983 287.046 90.8859 285.002 90.7415C280.744 90.4398 277.137 92.237 273.478 94.3358C270.864 95.8365 268.939 97.093 269.622 101.053L269.725 102.835C269.914 106.149 270.104 109.464 270.291 112.778ZM124.467 114.657C124.375 114.808 124.283 114.957 124.216 115.103C122.395 114.237 120.706 113.201 119.034 112.176C117.571 111.279 116.12 110.389 114.606 109.628C111.181 107.907 109.976 104.781 108.88 101.675C107.618 98.1002 110.427 94.6848 114.234 94.7104C114.403 94.7116 114.574 94.7129 114.744 94.7129C116.101 94.718 117.48 94.7231 118.784 95.0082C121.349 95.5706 121.603 97.5544 121.848 99.4653C121.923 100.058 121.999 100.645 122.142 101.179C123.058 104.601 123.726 108.09 124.394 111.574C124.533 112.295 124.671 113.016 124.812 113.737C124.865 114.01 124.666 114.334 124.467 114.657Z" fill="white"/>
<path fill-rule="evenodd" clip-rule="evenodd" d="M194.786 38.7936C199.872 39.9054 205.387 41.2545 210.526 38.4148C212.267 37.4522 213.902 36.2691 215.488 35.0535C216.456 34.3128 217.327 33.393 218.087 32.4291C224.124 24.7713 228.578 25.9142 236.891 30.9139C247.525 37.3108 259.84 55.9424 226.868 55.9424C210.261 55.9424 143.93 46.7408 153.191 37.5936C156.976 33.8548 161.936 31.3537 166.329 28.2428C167.984 27.0713 169.668 25.8986 171.128 24.5001C173.244 22.4725 174.527 23.5427 175.848 25.4069C177.584 27.8562 179.396 30.2497 181.343 32.8378C185.92 35.0055 190.167 37.7843 194.786 38.7936Z" fill="#E5E5E5"/>
<path fill-rule="evenodd" clip-rule="evenodd" d="M372.488 383.928C370.76 384.969 369.034 386.007 367.178 386.712C362.689 388.415 358.139 389.955 353.541 391.511C350.631 392.497 347.7 393.488 344.755 394.532C343.868 394.877 343.088 395.105 342.333 395.325C342.155 395.377 341.978 395.428 341.802 395.481C339.173 396.263 336.545 397.055 333.919 397.845L333.916 397.846H333.913L333.912 397.848H333.91H333.907L333.906 397.849C327.314 399.832 320.723 401.817 314.096 403.677C311.412 404.43 309.193 403.586 307.735 400.683C304.11 393.469 297.889 381.868 293.987 374.798C293.716 374.307 293.047 374.037 292.379 373.766C292.068 373.641 291.909 373.914 291.638 373.766C291.537 374.109 291.224 374.082 291.063 374.455C290.714 375.258 290.367 376.062 290.622 376.551C294.972 384.915 301.782 397.734 306.455 405.92C307.033 406.933 309.126 407.862 310.28 407.633C316.415 406.424 322.504 404.944 328.551 403.34C330.889 402.72 333.201 401.995 335.514 401.271C338.846 400.226 342.176 399.183 345.574 398.455C357.246 395.955 368.412 392.345 378.429 385.668C382.026 383.27 383.013 379.604 381.264 375.804C380.657 374.488 380.039 373.175 379.421 371.86L379.42 371.859V371.857L379.418 371.854L379.417 371.853L379.416 371.85V371.848L379.414 371.846L379.413 371.844L379.412 371.84L379.408 371.832C377.262 367.271 375.112 362.703 373.431 357.972C368.278 343.473 362.477 329.253 355.647 315.479C351.324 306.761 346.734 298.158 341.856 289.741C335.339 278.495 328.514 267.257 318.034 259.256C310.756 253.698 302.962 248.464 294.676 244.664C282.563 239.113 269.261 237.897 256.024 236.973C253.32 236.784 250.477 235.77 248.089 234.436C243.299 231.762 241.353 227.025 239.394 222.256C239.179 221.734 238.964 221.211 238.746 220.692C237.779 218.392 239.335 217.961 240.314 217.757C242.836 217.236 245.5 216.822 248.034 217.078C251.985 217.477 254.158 215.638 255.608 212.361C259.164 204.323 262.277 196.15 264.628 187.643C267.882 175.866 270.662 164.091 270.366 151.749C270.237 146.4 270.267 141.047 270.297 135.695V135.693C270.312 132.902 270.327 130.11 270.321 127.32C270.318 126.558 270.226 125.761 270.134 124.967C269.949 123.371 269.765 121.784 270.321 120.511C271.686 117.383 273.929 114.575 276.106 111.877C277.829 109.742 279.627 107.669 281.427 105.596C283.606 103.085 285.786 100.574 287.827 97.954C289.471 95.8439 290.697 93.157 289.041 90.3551C287.424 87.6184 284.831 86.5071 281.818 87.1874C281.302 87.3038 280.782 87.4138 280.26 87.5238C276.473 88.3256 272.643 89.1364 269.969 92.4959C268.685 94.1098 267.942 94.1149 267.609 91.7746C267.362 90.0354 267.01 88.3115 266.659 86.5876C266.295 84.8024 265.93 83.0184 265.682 81.2165C265.377 78.9964 265.171 76.7636 264.965 74.5307C264.767 72.3695 264.568 70.2082 264.279 68.0598C263.872 65.043 263.414 62.0338 262.955 59.0235C262.261 54.4669 261.567 49.9117 261.054 45.336C260.75 42.6185 259.996 40.4419 258.173 38.4609C257.228 37.4328 256.267 36.4148 255.307 35.3968C252.362 32.2752 249.414 29.151 246.874 25.7262C239.866 16.2781 229.912 11.3226 219.584 6.82877C212.929 3.93347 206.047 1.86174 198.728 1.44356C195.508 1.26069 192.29 1.0305 189.073 0.801583C185.787 0.566276 182.5 0.332247 179.212 0.146814C176.506 -0.0066468 173.755 -0.11535 171.082 0.220985C169.754 0.388514 168.425 1.45123 167.33 2.38351C166.247 3.303 165.218 4.28642 164.188 5.26985C162.862 6.53719 161.537 7.80324 160.101 8.93118C158.588 10.1205 156.984 11.2114 155.384 12.3022C152.756 14.0913 150.133 15.8779 147.92 18.0839C145.378 20.6211 143.347 23.6775 141.318 26.7288C140.572 27.8517 139.827 28.9745 139.056 30.0705C133.336 38.2013 128.942 46.9883 126.522 56.6614C125.025 62.649 123.757 68.6953 122.498 74.7392L122.299 75.6957C121.376 80.1205 120.451 84.5556 119.869 89.029L119.842 89.2272C119.383 92.7708 119.349 93.0407 115.95 91.7836C112.44 90.4855 109.416 91.3615 106.945 93.744C104.518 96.0843 104.251 99.2418 105.094 102.424C107.566 111.745 114.687 115.647 123.199 117.972C123.941 118.175 124.762 118.9 125.116 119.6C128.786 126.862 128.944 134.588 126.622 142.078C124.483 148.975 121.95 155.749 119.417 162.523L119.415 162.525V162.528L119.414 162.529V162.532L119.413 162.533C118.296 165.519 117.178 168.506 116.096 171.504C114.98 174.594 114.368 177.426 116.925 180.418C122.425 186.854 127.678 193.516 131.645 201.065C133.218 204.058 135.633 206.213 138.872 206.863C141.957 207.483 142.375 209.009 142.74 211.905C143.218 215.723 144.488 219.734 146.549 222.933C147.203 223.948 148.968 224.222 150.774 224.503C151.73 224.653 152.698 224.802 153.52 225.066C154.19 225.281 155.254 226.176 155.173 226.539C155.026 227.185 154.884 227.833 154.741 228.483V228.485C154.056 231.603 153.368 234.736 152.211 237.679C149.679 244.122 144.293 248.153 139.065 252.065C138.35 252.599 137.64 253.133 136.938 253.668C127.812 260.65 116.953 264.484 106.045 267.792C100.92 269.347 95.7189 270.655 90.518 271.964C87.1436 272.813 83.7679 273.662 80.4126 274.579C78.3228 275.149 76.2559 275.826 74.1917 276.501H74.1891C71.1278 277.502 68.0691 278.502 64.9363 279.16C52.8957 281.687 42.2753 286.885 32.9471 294.847C26.6775 300.198 23.3108 307.394 19.9274 314.63C19.7625 314.981 19.5976 315.333 19.4327 315.685C14.8594 325.438 10.8484 335.838 10.2835 346.392C10.125 349.353 10.3512 352.331 10.5774 355.312C10.6912 356.82 10.8062 358.326 10.8702 359.833C11.0159 363.217 11.1398 366.603 11.2651 369.989C11.5361 377.354 11.8071 384.718 12.2915 392.069C12.5625 396.167 13.291 400.24 14.0183 404.307C14.228 405.475 14.4363 406.642 14.6344 407.809C15.1725 410.985 15.7733 414.152 16.3753 417.318C16.7754 419.43 17.1767 421.542 17.5589 423.657C17.8082 425.037 18.0766 426.416 18.3437 427.793C19.0646 431.501 19.7855 435.212 20.1511 438.955C20.4873 442.395 20.3888 445.88 20.2917 449.36C20.2623 450.389 20.2342 451.418 20.2163 452.447C20.1856 454.258 20.5013 455.723 22.6768 455.232C24.8254 454.746 26.9383 454.094 29.0486 453.44C34.0483 451.889 31.317 453.105 41.571 449.857C49.0573 447.486 56.5066 445.003 63.9572 442.519C66.5992 441.638 69.2425 440.756 71.8871 439.88C73.8542 439.229 75.9492 438.603 78.1017 437.961C90.544 434.25 107.553 428.022 108.473 414.383L108.474 414.382C109.022 408.374 109.571 402.367 109.646 396.353C109.706 391.516 109.392 386.676 109.079 381.834C108.818 377.824 108.558 373.813 108.51 369.8C108.443 364.139 106.81 358.906 105.176 353.67C104.657 352.009 104.138 350.348 103.671 348.672C103.49 348.029 102.824 347.521 102.158 347.014C101.85 346.778 101.542 346.543 101.283 346.295C101.181 346.658 101.035 347.03 100.888 347.403C100.568 348.216 100.249 349.028 100.396 349.747C100.687 351.187 101.124 352.605 101.559 354.022C102.169 356.004 102.777 357.981 102.987 360.006C103.927 369.07 104.818 378.175 104.964 387.277C105.025 391.086 104.729 394.905 104.431 398.722C104.1 402.981 103.768 407.238 103.935 411.478C104.173 417.527 101.089 420.743 96.9588 423.812C91.5265 427.849 83.7666 430.182 76.8005 432.277C74.9547 432.832 73.1653 433.37 71.4883 433.919C61.0775 437.327 50.7279 440.924 40.3784 444.522C36.1042 446.008 31.8299 447.494 27.5505 448.967L27.479 448.991C26.0487 449.485 24.8689 449.891 24.8702 447.449C24.8727 444.472 24.5647 441.486 24.2579 438.516L24.2413 438.358C24.0662 436.667 23.8949 434.976 23.7236 433.287V433.283C23.0615 426.747 22.3994 420.211 21.5379 413.702C21.0126 409.726 20.3735 405.764 19.7344 401.802C18.9713 397.066 18.207 392.332 17.6369 387.575C16.8342 380.885 16.3574 374.123 16.3037 367.388C16.2488 360.567 16.4584 353.743 16.668 346.919C16.7498 344.241 16.8329 341.563 16.8994 338.885C17.077 331.7 20.6036 325.107 24.0419 318.678C25.329 316.273 26.6034 313.89 27.686 311.509C33.1746 299.427 43.51 292.765 55.1454 288.059C60.7362 285.798 66.5673 284.127 72.3971 282.458L72.3984 282.456H72.4009L72.4022 282.455H72.4048L72.406 282.454H72.4086C74.547 281.841 76.6854 281.229 78.8098 280.587C83.5787 279.148 88.3578 277.746 93.1383 276.345L93.1408 276.344H93.1434L93.1447 276.342H93.1472L93.1485 276.341H93.1511C102.579 273.576 112.007 270.811 121.342 267.759C129.67 265.036 137.6 261.136 144.16 255.097C145.956 253.443 146.84 253.736 148.425 255.252C153.598 260.2 158.896 265.018 164.192 269.837L165.104 270.668C174.133 278.885 184.182 285.604 195.358 290.503C197.013 291.229 199.724 291.128 201.263 290.233C204.732 288.214 207.977 285.798 211.216 283.389C211.883 282.891 212.551 282.395 213.219 281.903C214.562 280.912 215.91 279.924 217.256 278.936C222.853 274.831 228.45 270.724 233.893 266.422C239.674 261.853 243.811 255.832 247.933 249.833C248.593 248.873 249.251 247.915 249.917 246.962C250.178 246.587 249.256 244.66 248.666 244.54C246.348 244.071 245.285 245.581 244.169 247.166C243.957 247.466 243.744 247.77 243.519 248.063C242.593 249.272 241.689 250.511 240.785 251.754C237.981 255.603 235.163 259.473 231.621 262.462C225.968 267.231 220.031 271.658 214.091 276.088C209.868 279.236 205.645 282.386 201.521 285.66C198.956 287.697 197.068 287.548 194.587 286.147C194.044 285.84 193.5 285.535 192.957 285.23C187.172 281.979 181.434 278.754 176.43 274.153C169.998 268.24 163.247 262.67 156.498 257.103C154.568 255.511 152.638 253.92 150.716 252.321C148.934 250.837 149.255 249.92 150.787 248.517C155.923 243.816 158.679 238.001 159.425 230.986C159.471 230.557 159.487 230.087 159.502 229.597C159.573 227.384 159.658 224.8 162.616 224.111C165.458 223.447 167.577 225.305 169.275 227.365C170.364 228.689 171.404 230.055 172.445 231.419C173.738 233.117 175.032 234.814 176.42 236.431L176.681 236.735C179.334 239.833 182.257 243.243 186.87 241.647C193.322 239.417 199.831 239.001 206.535 238.922C208.441 238.899 211.088 237.473 212.065 235.877C213.679 233.239 214.872 230.341 216.064 227.446V227.443L216.066 227.442L216.067 227.441V227.438L216.068 227.437V227.434L216.069 227.433L216.071 227.432V227.429L216.072 227.428V227.425C216.531 226.309 216.991 225.194 217.475 224.094C219.186 220.2 220.965 218.745 225.249 220.305C227.11 220.984 229.575 221.523 231.258 220.853C234.594 219.526 235.224 221.135 236.16 223.521C236.198 223.618 236.237 223.717 236.276 223.815C238.461 229.351 240.682 234.903 245.955 238.513C249.43 240.893 253.363 241.551 257.301 242.211C257.667 242.273 258.032 242.334 258.398 242.397C261.822 242.984 265.258 243.509 268.693 244.036H268.695C273.635 244.793 278.575 245.549 283.481 246.486C296.261 248.926 307.215 255.495 316.6 263.993C323.156 269.928 328.453 277.402 333.617 284.691L333.766 284.902C337.517 290.195 340.565 296.01 343.597 301.79C343.947 302.458 344.296 303.124 344.646 303.789C345.588 305.578 346.539 307.366 347.489 309.154C351.83 317.322 356.176 325.5 359.857 333.961C364.117 343.753 368 353.708 371.885 363.666C373.771 368.5 375.657 373.334 377.585 378.15C378.23 379.76 378.437 380.782 376.478 381.705C375.108 382.351 373.796 383.14 372.488 383.928ZM122.377 165.664C122.855 164.587 123.332 163.51 123.817 162.437C127.612 153.692 130.888 145.622 131.36 136.383C131.798 127.789 129.595 119.953 127.35 111.966C127.22 111.505 127.091 111.042 126.96 110.579C126.257 108.065 125.903 105.456 125.548 102.844V102.842C125.246 100.615 124.943 98.3875 124.425 96.2147C123.218 91.171 124.196 86.383 125.172 81.6002C125.676 79.1269 126.181 76.6574 126.383 74.1534C127.01 66.3998 128.828 58.9966 131.456 51.789C134.862 42.4433 140.075 34.0605 145.764 25.9129C150.094 19.7106 155.734 15.2985 162.141 11.5413C164.707 10.0374 167.307 8.1562 169.045 5.8172C170.355 4.05496 171.449 3.41042 173.469 3.43855C175.681 3.46924 177.896 3.43599 180.111 3.40274C183.812 3.34648 187.51 3.29021 191.191 3.53319C204.621 4.41559 217.396 7.76361 228.804 15.2001L229.346 15.553C233.521 18.2719 237.772 21.0406 241.298 24.4883C245.794 28.8837 249.835 33.7535 253.865 38.6106C254.496 39.3702 255.126 40.1285 255.756 40.8856C256.463 41.7322 256.648 43.0737 256.822 44.3257C256.856 44.5725 256.89 44.8155 256.927 45.0508C257.875 51.0678 258.772 57.0911 259.671 63.1158V63.1183L260.076 65.8359C260.263 67.0891 260.453 68.3411 260.642 69.5944V69.5982C261.218 73.3874 261.793 77.1779 262.285 80.9786C262.454 82.2766 262.622 83.5734 262.792 84.8701C263.8 92.5854 264.807 100.301 265.59 108.039C266.024 112.328 266.127 116.653 266.229 120.972C266.252 121.921 266.274 122.871 266.301 123.819C266.356 125.814 266.414 127.809 266.472 129.804V129.806V129.809V129.811V129.814V129.816V129.819V129.821C266.704 137.693 266.935 145.567 266.939 153.438C266.945 165.196 264.354 176.593 260.875 187.724C258.737 194.567 256.063 201.246 253.394 207.917L253.393 207.918C252.92 209.101 252.445 210.284 251.975 211.468C251.59 212.435 250.1 213.325 248.976 213.565C245.863 214.231 242.683 214.677 239.508 214.911C238.224 215.006 236.638 214.662 235.631 213.919C234.387 213.002 234.162 212.983 233.482 214.418C231.874 217.808 229.94 218.619 226.214 217.297C222.904 216.122 219.673 215.701 217.181 218.44C215.802 219.956 214.887 221.929 213.994 223.859C213.83 224.212 213.668 224.563 213.503 224.91C213.068 225.823 212.81 226.819 212.549 227.815V227.818C212.415 228.333 212.281 228.85 212.122 229.355C210.575 234.282 208.61 235.988 203.579 235.66C198.093 235.303 192.776 236.089 187.72 237.844C183.462 239.322 181.47 237.02 179.327 234.543C179.108 234.29 178.887 234.036 178.663 233.782C178.055 233.097 177.448 232.41 176.842 231.722C173.908 228.396 170.97 225.067 167.779 222.006C166.586 220.86 164.282 220.395 162.506 220.438C160.652 220.482 158.808 220.796 156.962 221.109C155.762 221.312 154.56 221.516 153.355 221.646C150.783 221.925 148.765 220.482 148.002 218.307C146.935 215.266 146.337 212.008 145.971 208.793C145.708 206.482 144.879 204.727 142.685 204.331C137.278 203.355 134.299 199.957 131.726 195.349C129.905 192.088 127.584 189.105 125.264 186.124L125.263 186.123L125.262 186.121L125.26 186.12C124.379 184.987 123.497 183.851 122.643 182.704C122.076 181.942 121.457 181.222 120.837 180.501C120.26 179.829 119.682 179.158 119.148 178.455C117.957 176.883 117.897 175.264 118.812 173.415C120.071 170.866 121.224 168.263 122.377 165.664ZM268.419 102.555L268.322 100.857C267.639 96.8951 269.562 95.638 272.172 94.1366C275.825 92.0355 279.424 90.2387 283.675 90.5393C285.718 90.6851 287.43 91.6979 285.708 94.1418C282.788 98.2865 279.806 102.39 276.758 106.442C275.376 108.278 273.902 110.047 272.429 111.814C271.911 112.436 271.393 113.057 270.88 113.681C270.698 113.9 270.474 114.084 270.251 114.268C270.212 114.3 270.173 114.332 270.134 114.364C270.069 114.418 270.005 114.472 269.943 114.528C269.853 114.408 269.761 114.289 269.669 114.171C269.435 113.87 269.201 113.569 269.007 113.245C268.943 113.14 268.96 112.991 268.975 112.838C268.984 112.753 268.993 112.667 268.989 112.588C268.8 109.244 268.609 105.899 268.419 102.555ZM123.399 114.468C123.307 114.619 123.215 114.768 123.148 114.914C121.33 114.046 119.644 113.01 117.975 111.985C116.514 111.089 115.066 110.198 113.554 109.435C110.134 107.714 108.932 104.587 107.836 101.478C106.576 97.9028 109.38 94.4858 113.182 94.5113C113.352 94.5126 113.522 94.5139 113.692 94.5139C115.046 94.519 116.422 94.5241 117.726 94.8093C120.284 95.3707 120.539 97.3555 120.784 99.2686C120.86 99.862 120.935 100.449 121.077 100.984C121.992 104.406 122.659 107.897 123.327 111.383C123.465 112.104 123.603 112.826 123.743 113.547C123.796 113.821 123.598 114.144 123.399 114.468ZM297.757 611.902C297.364 613.971 297.039 616.038 296.717 618.085C295.947 622.992 295.194 627.786 293.538 632.246C290.492 640.447 283.442 645.402 275.301 647.923C267.298 650.401 259.081 652.217 250.881 654.028L250.88 654.029L250.813 654.043L250.72 654.064C249.811 654.265 248.902 654.465 247.994 654.668C245.817 655.151 243.545 655.223 241.277 655.293C240.378 655.321 239.479 655.349 238.587 655.403C234.087 655.675 229.586 655.939 225.086 656.202C218.269 656.602 211.453 657.001 204.637 657.427C201.861 657.601 199.087 657.812 196.312 658.024C192.919 658.284 189.524 658.544 186.127 658.732C185.587 658.762 185.048 658.793 184.508 658.823L184.489 658.824L184.469 658.825C179.098 659.128 166.567 660.174 161.196 660.092C160.703 660.154 160.244 660.205 159.818 660.245C151.611 661.021 155.065 657.787 154.299 657.018C158.897 656.25 180.44 655.274 190.855 654.1C195.947 653.527 201.066 653.175 206.181 652.823L207.353 652.743C210.906 652.499 214.462 652.297 218.019 652.096L218.021 652.094H218.024H218.028H218.031H218.035H218.039L218.043 652.093H218.046C224.802 651.711 231.56 651.328 238.287 650.649C251.342 649.332 264.257 646.987 276.475 641.969C283.537 639.068 288.398 633.55 290.242 626.272L290.429 625.534C292.463 617.516 294.531 609.368 293.711 600.934C293.519 598.969 293.194 597.01 292.869 595.05L292.868 595.049V595.047C292.37 592.043 291.872 589.042 291.86 586.036C291.844 582.083 292.135 578.13 292.425 574.176C292.678 570.729 292.932 567.284 292.982 563.836C293.027 560.762 292.625 557.68 292.223 554.599C292.053 553.289 291.881 551.978 291.745 550.668C291.626 549.53 291.516 548.392 291.405 547.252C291.111 544.221 290.815 541.191 290.373 538.18C288.778 527.355 288.161 516.487 288.341 505.547C288.388 502.682 288.209 499.815 288.032 496.947V496.944V496.941V496.939C287.91 494.994 287.79 493.047 287.739 491.101C287.625 486.727 287.545 482.354 287.463 477.979V477.976V477.974V477.971V477.969C287.348 471.73 287.231 465.492 287.02 459.256C286.848 454.133 286.554 449.014 286.26 443.895C286.072 440.612 285.884 437.328 285.727 434.044C285.599 431.355 285.508 428.664 285.418 425.972V425.97V425.967V425.964C285.309 422.726 285.2 419.488 285.027 416.254C284.903 413.954 284.69 411.653 284.477 409.352C284.078 405.026 283.679 400.702 283.868 396.403C284.074 391.737 284.895 387.099 285.717 382.459L285.718 382.458V382.456V382.453C286.085 380.386 286.452 378.317 286.762 376.247C286.971 374.862 287.185 373.478 287.399 372.093C287.979 368.333 288.561 364.572 289.034 360.798C289.301 358.668 289.498 356.528 289.694 354.39C289.922 351.914 290.151 350.729 290.487 348.27C290.561 347.725 291.176 347.253 291.791 346.782C292.074 346.565 292.358 346.347 292.588 346.122C292.711 346.381 292.873 346.643 293.036 346.906C293.387 347.471 293.737 348.038 293.68 348.56C292.896 355.675 292 361.49 291.063 368.588C290.713 371.234 290.28 373.876 289.847 376.518C288.949 381.996 288.051 387.472 287.901 392.972C287.688 400.815 288.157 408.678 288.625 416.539C288.786 419.243 288.947 421.946 289.08 424.648C289.275 428.612 289.544 432.57 289.812 436.528V436.53L289.813 436.531V436.534V436.537V436.539V436.542V436.544C290.017 439.533 290.219 442.522 290.39 445.512C290.507 447.55 290.625 449.588 290.743 451.627L290.744 451.64V451.651L290.745 451.664V451.668C291.333 461.828 291.92 471.99 292.375 482.157C292.541 485.883 292.604 489.616 292.668 493.348V493.35V493.353C292.751 498.232 292.832 503.111 293.147 507.974C293.519 513.742 294.15 519.493 294.782 525.245L294.783 525.246V525.25V525.252V525.256L294.784 525.258V525.261V525.264C295.115 528.278 295.446 531.292 295.74 534.309C296.243 539.473 296.702 544.642 297.071 549.816C297.127 550.614 297.188 551.412 297.25 552.212V552.218C297.523 555.785 297.797 559.362 297.697 562.921C297.594 566.576 297.37 570.228 297.146 573.88C296.852 578.67 296.56 583.459 296.539 588.248C296.528 590.716 296.985 593.181 297.444 595.65C297.805 597.593 298.166 599.539 298.301 601.493C298.455 603.736 298.249 606.005 298.036 608.377C297.932 609.524 297.826 610.697 297.757 611.902ZM51.7594 624.138C54.5689 636.057 62.2661 644.895 72.1363 652.229L72.9582 652.559C77.2619 654.281 80.6576 655.836 84.8808 657.242C85.7779 657.541 88.9792 658.107 89.9278 658.384C104.815 662.725 152 660.86 153.532 660.86C152.766 659.324 153.532 657.787 152.766 657.018C145.389 656.721 138.813 658.443 105.254 658.12C99.7216 657.647 90.8369 656.056 85.7708 654.058C84.6664 653.614 83.5084 653.235 82.3503 652.857C79.7007 651.99 77.0471 651.123 75.0314 649.475C70.1168 645.457 65.6329 640.733 61.7127 635.723C57.8385 630.772 55.8637 624.824 56.228 618.298C56.3596 615.936 56.4312 613.571 56.5015 611.206C56.6012 607.863 56.7009 604.522 56.9744 601.193C57.1815 598.663 57.5752 596.149 57.9689 593.635C61.9349 574.957 55.2503 554.436 56.4256 535.266C56.4971 534.096 56.5687 532.925 56.6429 531.755C56.671 531.31 56.3796 530.689 56.0293 530.425C55.7417 530.205 54.9275 530.2 54.7256 530.431C54.585 530.592 54.4341 530.757 54.2795 530.925C53.6084 531.655 52.8875 532.436 52.7866 533.265C52.3706 536.667 51.7742 540.249 51.7742 543.679V543.681V543.684C50.5089 558.562 56.5443 573.261 54.4577 587.927C54.1739 589.93 53.8672 591.93 53.5604 593.931C52.8191 598.769 52.0777 603.608 51.6546 608.474C51.6227 608.844 51.5894 609.216 51.5562 609.59C51.1242 614.454 50.673 619.527 51.7594 624.138ZM231.129 287.728C238.379 282.831 245.538 277.996 251.405 271.589C254.498 268.211 257.241 264.512 259.983 260.813L259.984 260.812C261.191 259.184 262.397 257.556 263.635 255.955C263.773 255.777 263.889 255.566 264.005 255.358C264.215 254.979 264.422 254.606 264.74 254.446C265.385 254.121 266.102 253.941 266.817 253.759C267.117 253.685 267.416 253.61 267.708 253.524C267.614 253.819 267.54 254.129 267.465 254.44C267.307 255.111 267.147 255.782 266.773 256.296C266.003 257.354 265.238 258.416 264.472 259.478C261.383 263.762 258.291 268.05 254.923 272.107C251.887 275.764 248.539 279.303 244.798 282.206C238.304 287.244 231.629 292.137 224.599 296.375C216.909 301.011 208.837 305.061 200.718 308.914C196.695 310.824 192.308 310.576 188.324 307.98C176.278 300.129 164.534 291.885 154.522 281.46C151.752 278.575 149.192 275.468 146.771 272.283C146.379 271.768 146.431 270.915 146.482 270.061C146.507 269.668 146.53 269.275 146.51 268.915C146.87 268.983 147.271 269.011 147.671 269.039C148.541 269.1 149.413 269.162 149.863 269.628C151.075 270.888 152.184 272.248 153.292 273.608L153.294 273.609L153.295 273.611C154.582 275.188 155.867 276.763 157.311 278.18C161.037 281.835 164.955 285.327 169.047 288.566C173.954 292.449 179.002 296.157 184.047 299.864C185.168 300.686 186.288 301.51 187.407 302.335C188.146 302.88 188.942 303.348 189.737 303.816C190.567 304.302 191.395 304.789 192.158 305.362C195.345 307.755 198.089 306.187 200.606 304.749C201.231 304.392 201.842 304.043 202.441 303.766C208.409 300.998 214.179 297.803 220.033 294.559C221.901 293.525 223.778 292.485 225.672 291.453C227.485 290.19 229.31 288.957 231.129 287.728ZM233.701 165.616C235.307 165.997 236.748 166.546 238.189 167.095C237.97 167.459 237.773 167.845 237.576 168.233C237.152 169.065 236.726 169.899 236.094 170.519C228.33 178.125 218.874 182.569 208.354 184.776C207.08 185.043 205.659 184.693 204.27 184.351C203.851 184.246 203.433 184.144 203.024 184.06C202.645 183.98 202.072 182.946 202.141 182.873C202.291 182.714 202.441 182.539 202.595 182.361C203.16 181.711 203.762 181.015 204.435 180.914C214.979 179.334 223.823 174.489 231.464 167.211C231.824 166.867 232.25 166.589 232.719 166.285C233.03 166.084 233.358 165.869 233.701 165.616ZM180.849 32.7509C182.158 33.3609 183.44 34.0195 184.71 34.6717C187.897 36.3087 191.016 37.911 194.327 38.6234L194.844 38.7346C199.798 39.8037 205.128 40.9534 210.107 38.2487C211.851 37.301 213.493 36.1335 215.083 34.9365C216.052 34.2062 216.925 33.2995 217.688 32.3481C223.74 24.8003 228.206 25.927 236.538 30.8557C247.201 37.1604 251.084 47.9231 254.838 58.6296C256.713 63.979 257.892 69.5892 259.065 75.1688L259.066 75.174V75.1778L259.068 75.1816C259.225 75.9272 259.381 76.6715 259.539 77.4145C260.314 81.0605 260.641 84.8203 260.929 88.5468C261.27 92.9665 261.431 97.4028 261.592 101.835L261.622 102.65C261.71 105.076 261.757 107.504 261.803 109.934V109.937V109.939C261.894 114.671 261.985 119.401 262.383 124.108C262.993 131.306 261.844 138.244 260.239 145.127C258.39 153.052 252.369 156.873 245.07 158.654C241.996 159.404 238.788 159.621 235.586 159.837H235.584C234.478 159.911 233.374 159.987 232.276 160.083C220.975 161.076 209.746 162.475 198.829 165.713C195.443 166.717 192.208 166.256 189.369 164.367C183.638 160.555 177.164 159.162 170.562 158.093C158.249 156.102 146.561 152.741 137.539 143.371C135.156 140.898 133.629 138.25 133.782 134.525C134.054 127.92 133.101 121.418 132.149 114.923C131.605 111.213 131.062 107.506 130.748 103.783C129.795 92.5266 130.213 81.2178 133.653 70.0074C137.489 57.5029 143.342 46.4563 152.627 37.4404C155.176 34.9633 158.258 33.0374 161.342 31.1089C162.848 30.1689 164.353 29.2277 165.797 28.2225L166.041 28.0537C167.621 26.9552 169.216 25.8439 170.609 24.5318C172.73 22.533 174.017 23.5893 175.341 25.4257C176.922 27.6202 178.566 29.7674 180.316 32.0552L180.849 32.7509ZM249.255 52.9988C249.079 52.5768 248.9 52.1548 248.722 51.7341C248.337 50.8261 247.954 49.9194 247.585 49.0063C244.063 40.3063 237.841 34.2011 229.32 30.5296C227.996 29.9592 225.693 30.2904 224.499 31.1344C223.506 31.8365 222.808 32.9402 222.105 34.0528C221.706 34.6832 221.306 35.315 220.85 35.8802C216.774 40.924 211.995 44.8667 205.018 44.2451C200.7 43.8602 196.339 43.3052 192.16 42.2092C185.608 40.4917 179.642 37.4085 175.405 31.912C175.261 31.7253 175.124 31.5462 174.992 31.3762L174.991 31.3749C172.207 27.7481 172.173 27.7033 168.378 30.252C167.126 31.0922 165.84 31.8966 164.553 32.7023C161.346 34.7101 158.133 36.7204 155.454 39.282C146.395 47.9461 140.445 58.361 136.875 70.6891C133.658 81.7997 133.464 92.8156 133.992 103.957C134.42 113.003 135.859 122.027 137.296 130.99C137.328 131.185 137.359 131.38 137.389 131.577L137.39 131.584C138.019 135.553 138.666 139.637 142.13 142.71C148.69 148.53 156.462 151.662 164.82 153.328C165.954 153.554 167.089 153.772 168.223 153.99C176.192 155.52 184.115 157.042 191.293 161.331C192.967 162.332 195.502 162.552 197.501 162.24C201.998 161.535 206.478 160.716 210.958 159.895C215.6 159.044 220.244 158.195 224.907 157.474C227.549 157.065 230.227 156.845 232.903 156.625C236.556 156.324 240.204 156.024 243.754 155.245C248.642 154.173 254.138 152.515 255.723 146.792C257.263 141.23 258.591 135.447 258.802 129.717C259.093 121.795 258.76 113.846 258.426 105.907V105.905V105.887L258.425 105.87V105.855C258.365 104.426 258.305 102.999 258.248 101.572C258.132 98.6318 257.885 95.6955 257.637 92.7593C257.365 89.5277 257.093 86.296 256.996 83.0593C256.694 72.9718 253.249 63.7245 249.67 54.1153L249.255 52.9988ZM242.435 86.3792C236.771 81.9531 230.13 81.0464 222.83 81.7805C222.151 81.9019 221.576 82.0375 221.043 82.1628C220.596 82.2677 220.179 82.3662 219.76 82.4429C212.861 83.6974 206.947 86.5147 202.884 92.5713C202.458 93.2069 200.864 93.5292 199.985 93.3092C196.108 92.3373 192.51 92.2542 189.5 95.3912C189.126 95.7787 188.78 96.1917 188.435 96.6061L188.434 96.6074C188.274 96.7979 188.114 96.9872 187.952 97.1752C187.89 96.8989 187.806 96.6189 187.722 96.3401C187.54 95.7365 187.359 95.1341 187.409 94.5523C188.011 87.6222 184.694 83.3074 178.652 80.3929C172.998 77.6664 167.06 77.0845 160.951 77.0922C151.649 77.1037 143.725 83.1309 140.456 91.946C138.458 97.3286 139 102.562 140.721 107.534C142.404 112.387 144.314 117.575 149.31 120.266C149.942 120.607 150.579 120.964 151.221 121.324C154.155 122.971 157.176 124.666 160.299 125.041C160.579 125.074 160.861 125.109 161.144 125.143C165.778 125.711 170.747 126.321 175.125 123.192C181.741 118.462 185.351 111.777 187.265 104.19C188.17 100.61 189.996 98.4553 193.186 97.0243C197.988 94.8707 201 96.7647 201.501 101.739C202.087 107.559 203.367 113.283 206.776 118.267C210.769 124.108 216.191 127.659 222.886 130.128C230.954 133.106 236.751 131.292 242.601 126.559C253.472 117.765 254.553 95.8529 242.435 86.3792ZM217.185 86.6439C221.746 85.2832 226.696 84.8433 231.527 86.1311C237.011 86.5442 240.613 89.639 243.272 93.3962C245.939 97.1688 248.358 101.445 248.188 106.334C248.005 111.579 246.034 116.3 242.74 120.427C239.914 123.967 236.233 126.229 231.865 127.2C230.949 127.403 229.92 127.138 228.904 126.878C228.541 126.783 228.18 126.691 227.826 126.619C216.202 124.288 208.421 117.919 206.106 105.843C205.958 105.072 205.771 104.309 205.584 103.546C204.833 100.485 204.09 97.4565 205.968 94.1852C208.537 89.708 212.894 87.924 217.185 86.6439ZM183.349 94.5318C184.074 100.686 182.082 106.218 179.344 111.567C178.794 112.299 178.321 112.996 177.873 113.653C177.22 114.617 176.622 115.497 175.919 116.285C172.051 120.62 167.427 121.983 161.558 120.744C157.447 119.876 153.787 118.811 150.368 116.194C146.248 113.04 144.482 108.689 143.3 104.109C141.417 96.8133 143.982 90.6889 149.209 85.4507C153.43 81.2203 158.768 80.6947 164.101 81.2306C169.234 81.7472 174.247 83.0209 178.777 86.0607C182.025 88.2399 182.948 91.1262 183.349 94.5318ZM182.02 69.0636C185.424 69.2555 188.25 68.8949 190.826 66.8142C191.298 66.4318 192.289 66.6927 193.279 66.9536C193.733 67.0738 194.188 67.194 194.592 67.2515C194.402 67.4715 194.218 67.6978 194.033 67.9255C193.635 68.4165 193.237 68.9076 192.773 69.3271C188.462 73.2263 183.717 72.9539 178.469 71.3298C173.882 69.909 169.064 68.8143 164.29 68.5176C157.121 68.0713 150.989 70.863 146.195 76.394C145.781 76.871 145.14 77.1523 144.498 77.4324C144.202 77.5628 143.905 77.6933 143.631 77.8429C143.717 77.4554 143.767 77.036 143.816 76.6165C143.922 75.7124 144.028 74.8095 144.518 74.2302C152.518 64.7667 162.936 64.3741 173.966 66.7349C175.511 67.0661 177.025 67.5431 178.603 68.0393C179.701 68.3846 180.828 68.7401 182.02 69.0636ZM234.823 71.4576C228.307 70.4576 221.82 70.5701 215.972 74.9207C215.118 75.5512 214.276 76.1561 213.448 76.7495C211.789 77.9401 210.187 79.0898 208.662 80.3341C208.318 80.6154 208.266 81.2523 208.212 81.8905C208.188 82.1833 208.164 82.4774 208.111 82.7358C208.34 82.7063 208.581 82.6961 208.821 82.6871C209.351 82.6654 209.883 82.6437 210.289 82.4071C211.456 81.7306 212.516 80.8533 213.563 79.9875L213.611 79.9466C220.101 74.578 227.311 72.4104 235.619 74.8159C238.508 75.6522 241.422 76.4221 244.362 77.0347C244.84 77.1344 245.39 76.8812 245.941 76.6267C246.194 76.5103 246.448 76.394 246.694 76.3109C246.507 76.1126 246.331 75.8812 246.156 75.6497C245.773 75.1471 245.391 74.6445 244.896 74.4744C244.265 74.257 243.634 74.032 243.002 73.8069C240.312 72.849 237.604 71.8848 234.823 71.4576ZM199.582 141.52C195.659 141.799 191.901 142.028 188.154 141.921C187.657 141.905 187.177 141.276 186.699 140.647C186.478 140.357 186.257 140.066 186.035 139.836C186.322 139.715 186.61 139.564 186.896 139.413C187.521 139.084 188.146 138.757 188.785 138.727C192.238 138.57 195.7 138.582 199.156 138.62C199.982 138.63 200.807 138.762 201.631 138.895C202.007 138.955 202.383 139.015 202.76 139.065L202.757 139.066L202.756 139.068C201.754 139.828 200.75 140.591 199.582 141.52ZM220.317 93.331C217.934 95.9795 218.194 101.555 220.989 104.371C226.657 104.539 230.057 98.853 227.417 94.0689C225.952 91.4127 222.376 91.0418 220.317 93.331ZM169.978 89.8129C171.172 93.3386 170.391 96.9897 167.731 98.9566C166.958 99.5282 164.998 99.7073 164.454 99.174C161.378 96.1713 160.863 91.0892 165.263 88.4522C167.267 87.2501 168.696 87.8064 169.978 89.8129ZM386.754 73.6943C388.483 76.2929 390.224 78.9095 392.586 81.1487C392.741 86.2244 392.787 90.9587 391.484 95.5869C391.252 96.4168 391.424 97.1982 391.599 97.9872C391.741 98.6305 392.669 99.0934 393.211 98.7852C393.912 98.3862 394.602 97.9629 395.26 97.4974C395.702 97.1854 396.142 96.8682 396.581 96.5511C398.444 95.2045 400.308 93.8591 402.391 92.8463C402.644 92.7235 402.899 92.602 403.153 92.4793C404.121 92.0163 405.088 91.5521 406.01 91.0099C407.03 90.4101 408.019 90.3257 409.113 90.6991C412.884 91.9869 416.773 92.7836 420.662 93.5803C421.283 93.7082 421.903 93.8348 422.523 93.964C422.709 94.0036 422.895 94.0446 423.081 94.0868C423.555 94.1929 424.03 94.3003 424.509 94.3592C426.056 94.5523 427.609 94.7019 429.16 94.8515C431.645 95.0906 434.131 95.3311 436.596 95.7493C437.125 95.8401 437.686 95.8784 438.215 95.8081C439.468 95.6418 440.727 95.5293 441.986 95.4168C444.502 95.193 447.018 94.9679 449.472 94.3131C451.154 93.8655 452.821 93.3642 454.486 92.8629C455.154 92.6634 455.819 92.4626 456.485 92.2657C456.795 92.1749 457.104 92.0828 457.413 91.992C459.18 91.4715 460.945 90.951 462.704 90.4139C463.218 90.2579 463.726 90.0661 464.206 89.8257C464.621 89.6172 465.037 89.41 465.452 89.2041C468.903 87.4841 472.349 85.7666 475.477 83.4378C475.872 83.145 476.271 82.8598 476.669 82.5746C477.918 81.6845 479.162 80.797 480.228 79.6653C480.875 78.9798 481.594 78.3608 482.31 77.7457L482.319 77.738C484.392 75.9566 486.058 73.8261 487.595 71.5907C489.518 68.7938 490.303 65.5596 491.086 62.3305L491.131 62.1438C491.037 60.9954 491.259 59.8892 491.479 58.7818C491.576 58.2996 491.671 57.8162 491.742 57.329C492.725 50.5345 491.85 44.1083 487.801 38.3369C487.306 37.6323 486.897 36.8675 486.49 36.1028C486.322 35.7894 486.155 35.4774 485.982 35.1692C484.987 33.389 483.872 31.6959 482.416 30.2508C479.235 27.0946 475.874 24.1891 471.913 22.001C469.101 20.4484 466.172 19.1824 463.236 17.9138C462.572 17.6273 461.909 17.3408 461.245 17.0506C456.098 14.7972 450.737 13.544 445.193 12.98C443.485 12.8074 441.767 12.7178 440.051 12.6283C439.198 12.5836 438.345 12.5388 437.493 12.4838C432.757 12.1782 428.016 12.0733 423.283 12.4518C419.238 12.7754 415.197 13.1603 411.158 13.5452C410.352 13.622 409.544 13.6987 408.737 13.7754C408.345 13.8125 407.947 13.966 407.587 14.1373C405.691 15.0389 403.736 15.7909 401.78 16.5441C400.713 16.9546 399.646 17.3651 398.589 17.8C393.987 19.6926 390.036 22.4089 387.236 26.6278C386.831 27.2378 386.387 27.8222 385.942 28.4054C385.566 28.899 385.191 29.3927 384.838 29.9029C382.285 33.6026 380.11 37.4929 379.214 41.9599C379.039 42.8359 378.935 43.7259 378.83 44.6173C378.761 45.2056 378.692 45.7951 378.603 46.3795C378.15 49.3362 378.125 52.2417 378.722 55.2227C379.743 60.3279 381.843 64.9969 383.993 69.6673C384.049 69.7887 384.127 69.9026 384.208 70.0113C385.099 71.2057 385.926 72.4475 386.754 73.6943ZM395.083 92.813C395.062 92.8156 395.04 92.8169 395.02 92.8194C395.006 92.8437 395.038 92.8783 395.117 92.9217C395.105 92.8859 395.094 92.8489 395.083 92.813ZM395.416 92.8015C395.304 92.8028 395.19 92.8041 395.083 92.813C394.855 92.0432 394.979 91.2644 395.196 90.5239C395.727 88.7131 395.958 86.8549 396.188 84.9955C396.325 83.8982 396.46 82.801 396.658 81.714C396.782 81.0298 396.629 80.3315 395.903 79.9952C393.595 78.9286 392.088 76.9925 390.645 75.0371C389.442 73.4066 388.299 71.7032 387.365 69.909C386.496 68.2401 385.851 66.4369 385.261 64.6427C384.5 62.3293 383.845 59.9787 383.232 57.6206C382.683 55.5105 382.629 53.3326 382.648 51.1624C382.652 50.6918 382.684 50.2212 382.716 49.7493C382.758 49.1367 382.799 48.5242 382.779 47.9129C382.56 41.245 385.239 35.5401 388.66 30.0858C390.81 26.6585 393.895 24.1545 397.415 22.3795C401.51 20.3142 405.768 18.5033 410.297 17.5365C414.533 16.6324 418.794 15.883 423.144 15.7372C424.752 15.6835 426.342 15.5965 427.932 15.0492C429.03 14.6719 430.286 14.6821 431.497 14.6911C431.648 14.6924 431.797 14.6936 431.945 14.6936C433.567 14.6988 435.196 14.8075 436.809 14.9865C436.95 15.0018 437.09 15.0185 437.231 15.0338C438.839 15.2141 440.44 15.3932 442.066 15.4136C443.148 15.429 444.234 15.6656 445.305 15.8983C445.427 15.9252 445.548 15.952 445.669 15.9776C448.508 16.5902 451.263 17.4879 454.017 18.3857C455.765 18.956 457.512 19.5264 459.281 20.0226C460.293 20.5175 461.307 21.0099 462.32 21.5035C464.589 22.6059 466.857 23.7095 469.114 24.8349C473.516 27.0306 477.016 30.3876 480.51 33.7395L480.881 34.095C483.29 36.4033 484.721 39.3497 485.785 42.4241C486.802 45.359 487.507 48.3899 487.721 51.5333C488.076 56.7714 487.176 61.7538 485.32 66.6466C483.388 71.7428 480.265 75.9745 475.959 79.1563C470.396 83.2665 464.339 86.594 457.728 88.7732C454.908 89.7029 452.09 90.6301 449.164 91.2413C444.752 92.1621 440.297 92.2401 435.829 92.2874C435.646 92.29 435.463 92.281 435.28 92.2721C435.057 92.2619 434.834 92.2516 434.611 92.2593C426.49 92.5624 418.781 90.5635 411.156 88.0839C410.427 87.8473 409.691 87.6363 408.955 87.4253C408.523 87.3012 408.091 87.1772 407.66 87.048C406.825 86.7974 406.043 86.938 405.337 87.4138C403.975 88.3333 402.514 89.0814 401.054 89.8308C399.384 90.6863 397.712 91.5431 396.186 92.6545C395.995 92.7939 395.706 92.7977 395.416 92.8015Z" fill="#131314"/>
<path d="M152.766 657.018C153.532 657.787 152.766 659.324 153.532 660.86L159.818 660.245C151.611 661.021 155.065 657.787 154.299 657.018H152.766Z" fill="#131314"/>
<path d="M448.179 47.9662C450.996 44.0827 452.398 39.8422 452.228 34.9435C451.909 25.6952 445.191 22.0215 439.422 21.3823C435.23 20.9158 430.446 20.7473 424.025 27.8683C422.551 29.8106 421.455 32.3981 421.449 35.5085C421.447 36.9244 425.026 37.0713 425.296 35.6262C426.384 29.7988 432.661 25.5201 438.133 25.9103C450.788 26.813 449.011 43.7845 440.026 49.8312C436.229 52.3869 430.396 58.8962 429.753 60.1903C429.11 61.4843 428.467 63.425 428.634 64.452C428.632 65.837 432.952 66.0054 433.545 64.4456C433.597 62.7716 445.595 51.529 448.179 47.9662Z" fill="#35D5C3"/>
<path fill-rule="evenodd" clip-rule="evenodd" d="M423.234 73.183C424.708 71.8474 426.209 71.6336 427.769 72.8511C428.211 73.1954 428.614 73.6531 428.933 74.1429C429.074 74.3587 429.169 74.6193 429.264 74.8778C429.386 75.2108 429.507 75.54 429.72 75.7618C430.668 76.7507 430.223 77.7554 429.564 78.2101C427.9 79.3587 426.123 80.334 424.312 81.1695C423.359 81.6094 421.923 80.4059 421.568 79.1619C420.79 76.4321 421.612 74.5086 423.234 73.183Z" fill="#35D5C3"/>
<path d="M37.6907 497.051C37.2111 483.558 35.1207 465.763 34.6882 452.499C34.6631 451.731 53.3119 447.35 103.122 428.232C105.375 430.348 105.05 464.022 106.836 466.563C110.163 471.292 121.6 459.436 139.771 449.468C168.384 433.775 215.368 411.177 238.508 395.882C247.913 389.667 247.277 379.595 247.992 377.502C250.636 369.756 250.322 362.079 247.771 354.372C246.116 349.373 248.163 343.562 253.365 343.909C257.207 344.166 260.841 345.577 263.25 349.043C266.003 353.003 269.633 357.416 270.195 362.283C270.272 362.94 270.737 363.558 271.023 364.194C271.627 363.75 272.25 363.327 272.831 362.857C278.648 358.14 285.531 351.637 291.509 347.107C296.791 343.104 302.262 339.282 307.941 335.801C309.814 334.655 313.291 333.764 314.802 334.638C317.027 335.927 314.966 339.368 313.816 341.95C313.207 343.32 312.609 344.697 312.082 346.097C311.851 346.712 311.811 347.391 311.685 348.041C312.379 347.806 313.06 347.528 313.769 347.345C315.907 346.793 320.15 345.582 322.317 345.49C325.294 345.364 325.361 347.946 323.618 350.377C321.211 353.733 317.414 357.77 314.422 360.652C309.041 365.835 306.048 370.232 300.453 375.219C300.121 375.516 297.667 377.313 298.28 376.477C298.831 376.496 301.178 377.379 301.561 377.151C304.06 375.659 307.293 374.063 309.574 372.307C313.264 369.47 314.549 368.141 319.217 367.417C320.302 367.248 323.478 366.684 324.638 366.93C324.39 367.938 323.202 369.015 322.541 369.627C317.758 374.061 314.418 378.976 309.166 382.88C295.938 392.714 282.431 402.218 268.999 411.808C261.235 417.35 253.06 422.432 245.689 428.397C238.173 434.477 231.592 441.567 224.276 447.883C216.519 454.578 208.425 460.932 200.395 467.344C188.191 477.088 175.287 493.612 162.496 502.626C152.499 509.669 141.517 515.566 130.582 521.318C122.388 525.627 113.757 529.354 104.965 532.45C99.8022 534.268 93.9581 534.452 88.3914 535.187C79.4822 536.362 70.7628 535.444 62.1691 532.907C52.2773 529.988 45.4419 524.266 42.6442 514.704C40.9494 508.914 39.3802 503.089 37.6907 497.051Z" fill="white"/>
<path fill-rule="evenodd" clip-rule="evenodd" d="M33.7035 469.851C34.2977 480.109 34.8925 490.398 35.5303 500.821C36.1229 502.746 36.7015 504.65 37.2756 506.539C38.5385 510.693 39.7784 514.772 41.0783 518.833C44.2016 528.585 51.3655 534.284 61.592 537.023C70.4749 539.402 79.4465 540.115 88.557 538.669C90.0002 538.441 91.4643 538.247 92.9296 538.053C97.2396 537.485 101.572 536.914 105.488 535.416C114.427 532 123.184 527.941 131.478 523.295C142.545 517.093 153.657 510.742 163.728 503.237C173.116 496.241 181.981 488.62 190.844 481L190.849 480.995C194.151 478.158 197.451 475.32 200.779 472.514L201.783 471.669L202.52 471.048L203.139 470.527L204.429 469.443L204.433 469.439L204.435 469.438L204.436 469.436C211.297 463.666 218.16 457.896 224.768 451.878C227.975 448.956 231.036 445.885 234.096 442.815C238.035 438.864 241.973 434.913 246.223 431.282C251.102 427.115 256.349 423.331 261.598 419.547C264.316 417.588 267.034 415.628 269.7 413.615C272.507 411.496 275.317 409.382 278.126 407.267L278.129 407.265C288.865 399.185 299.6 391.106 310.151 382.818C314.333 379.531 318.111 375.779 321.879 372.035L321.883 372.029L321.887 372.027L321.888 372.024L321.89 372.024L321.891 372.021L321.894 372.02L321.895 372.017L321.897 372.017L321.898 372.015L321.901 372.013L321.902 372.011L321.904 372.01L321.906 372.008C322.89 371.031 323.872 370.054 324.861 369.087C325.314 368.645 325.388 367.859 325.463 367.072C325.562 365.985 325.575 366.037 324.458 365.734C323.622 365.504 322.788 365.275 322.028 365.414C317.258 366.281 313.1 368.355 309.391 371.37C307.49 372.915 305.38 374.236 303.277 375.551C303.054 375.691 302.829 375.832 302.606 375.972C302.394 376.106 302.181 376.24 301.97 376.374C301.704 376.541 301.285 376.491 300.865 376.44C300.671 376.418 300.478 376.394 300.299 376.393C300.372 376.263 300.437 376.124 300.502 375.985C300.641 375.687 300.78 375.39 301.008 375.175C302.794 373.496 304.6 371.835 306.405 370.173L306.408 370.171L306.41 370.17L306.413 370.167L306.415 370.164L306.417 370.163L306.419 370.16L306.421 370.159L306.425 370.155L306.428 370.152L306.432 370.149L306.435 370.146C310.292 366.598 314.148 363.05 317.808 359.333C320.803 356.29 323.27 352.743 325.651 349.228C327.374 346.684 325.707 343.831 322.655 344.041C321.072 344.149 319.52 344.661 317.968 345.171C317.342 345.377 316.717 345.583 316.091 345.762C315.595 345.905 315.114 346.093 314.633 346.281C314.413 346.366 314.192 346.452 313.971 346.533C314.007 346.323 314.033 346.111 314.06 345.899C314.117 345.431 314.175 344.964 314.328 344.525C314.831 343.072 315.408 341.641 315.998 340.218C317.109 337.532 316.977 334.352 314.66 333.088C313.086 332.228 309.542 333.235 307.652 334.464C301.915 338.192 296.403 342.265 291.089 346.52C286.959 349.827 282.975 353.297 278.992 356.767L278.989 356.77C277.172 358.35 275.358 359.93 273.53 361.496C273.131 361.836 272.712 362.155 272.292 362.474C272.098 362.621 271.902 362.769 271.71 362.919C271.613 362.714 271.495 362.512 271.38 362.309C268.783 357.798 267.821 353.033 264.549 348.575L264.208 348.11C261.643 344.61 257.877 343.257 253.93 343.094C248.583 342.875 244.576 350.054 246.406 355.147C249.228 363.001 249.751 370.882 247.243 378.913C243.838 389.819 236.538 397.489 225.732 402.381L225.205 402.62L224.126 403.108C218.743 405.542 213.354 407.979 208.128 410.688C194.735 417.631 181.387 424.656 168.147 431.855L167.361 432.281C155.12 438.937 142.869 445.599 130.962 452.762C125.578 456 120.548 459.765 115.52 463.527C113.745 464.855 112.519 465.63 110.097 466.469C108.498 467.634 105.041 434.39 104.61 432.139C104.286 430.456 103.777 428.769 103.057 427.204C102.835 426.724 102.272 426.383 101.71 426.042C101.454 425.888 101.199 425.733 100.976 425.565C100.861 425.729 100.704 425.902 100.549 426.075C100.212 426.449 99.8748 426.824 99.9451 427.109C100.036 427.485 100.124 427.863 100.213 428.242C100.673 430.209 101.975 435.271 102.037 437.435C102.293 446.321 103.258 479.885 113.478 469.915C113.748 469.699 114.016 469.483 114.284 469.266C114.652 468.97 115.019 468.675 115.385 468.378L115.387 468.378C119.803 464.813 124.249 461.222 129.132 458.321C142.387 450.44 155.902 442.936 169.44 435.491C182.83 428.128 196.302 420.894 209.887 413.858C212.954 412.269 216.144 410.877 219.333 409.486L219.335 409.485C223.801 407.538 228.263 405.59 232.368 403.11C247.628 393.895 254.166 380.248 252.578 363.306C252.42 361.625 251.909 359.97 251.399 358.317C250.836 356.495 250.275 354.676 250.189 352.832C250.098 350.845 251.569 348.092 253.283 346.972C254.44 346.216 257.949 347.075 259.202 348.302C265.221 354.201 270.508 360.556 267.154 369.693C266.659 371.049 268.236 372.396 269.454 371.284C271.982 368.966 274.482 366.62 276.981 364.274L278.146 363.182C280.033 361.411 281.903 359.622 283.773 357.834L283.774 357.833L283.777 357.831L283.778 357.829L283.781 357.827L283.783 357.824L283.785 357.823L283.786 357.821L283.788 357.821L283.789 357.818L283.791 357.818L283.793 357.815L283.795 357.814L283.797 357.811L283.798 357.811L283.8 357.809L283.802 357.808L283.803 357.806C288.204 353.598 292.606 349.388 297.231 345.412C300.135 342.917 303.449 340.84 306.756 338.768C314.341 334.013 313.361 341.161 309.618 345.141C306.942 347.982 304.017 350.612 301.089 353.243C299.429 354.737 297.767 356.231 296.151 357.762C292.47 361.254 288.867 364.826 285.386 368.494C283.826 370.139 286.738 371.75 288.207 370.502C290.886 368.22 293.491 365.862 296.096 363.505C296.996 362.691 297.895 361.877 298.797 361.066C304.838 355.638 310.98 350.343 319.189 347.913C321.221 347.314 322.577 348.49 320.916 350.221C314.81 356.59 308.636 362.901 302.43 369.184C301.513 370.111 300.552 371.005 299.591 371.896C298.044 373.332 296.498 374.767 295.141 376.349C294.156 377.499 293.396 380.346 295.221 380.835C296.115 381.074 297.007 381.313 297.662 381.04C301.009 379.651 304.286 378.051 307.386 376.223C309.209 375.149 310.947 373.951 312.688 372.754C314.136 371.757 315.585 370.758 317.08 369.832C319.407 368.39 320.377 369.996 318.508 371.496C317.816 372.053 317.124 372.609 316.433 373.165C311.472 377.156 306.511 381.148 301.434 385.001C299.343 386.587 297.173 388.076 295.001 389.564L294.999 389.565L294.998 389.567L294.996 389.568L294.994 389.568L294.993 389.571L294.991 389.571L294.99 389.573L294.988 389.574C292.88 391.017 290.774 392.463 288.743 393.996C284.953 396.856 281.207 399.77 277.461 402.685C270.786 407.877 264.113 413.069 257.195 417.955C247.397 424.873 238.346 432.488 229.74 440.638C226.31 443.885 222.852 447.113 219.278 450.218C215.462 453.535 211.605 456.81 207.746 460.085L207.742 460.089C200.199 466.494 192.659 472.898 185.427 479.599C174.781 489.463 163.824 498.917 151.774 507.216C138.93 516.062 125.127 523.474 110.603 529.448C103.779 532.256 96.1185 534.167 88.7205 534.577C80.2791 535.044 71.5537 534.992 63.2045 532.523C57.653 530.881 52.2916 528.827 49.164 523.961C43.4097 515.01 41.1055 504.909 39.8253 494.708C38.859 487.018 38.2102 479.294 37.561 471.568C37.1878 467.124 36.6357 454.745 36.2017 450.307C36.1314 449.583 35.6728 448.893 35.2161 448.204C35.0029 447.884 34.9205 448.377 34.7469 448.053C34.5575 448.347 34.2344 447.826 34.0401 448.117C33.5259 448.893 33.0103 449.671 32.5904 450.49C32.5018 450.663 32.6148 450.914 32.7354 451.179C32.8291 451.384 32.9268 451.598 32.9379 451.792C33.1339 455.161 33.507 466.461 33.7023 469.834L33.7031 469.844L33.7035 469.851Z" fill="#131314"/>
<path fill-rule="evenodd" clip-rule="evenodd" d="M318.187 417.209C323.478 425.682 337.169 447.595 342.572 456.19C343.951 457.568 345.308 458.934 346.656 460.29C349.618 463.271 352.528 466.198 355.476 469.083C362.559 476.011 370.982 477.705 380.474 475.529C388.718 473.637 396.252 470.288 402.884 465.039C403.935 464.208 405.019 463.397 406.104 462.587C409.296 460.202 412.504 457.805 414.944 454.802C420.514 447.952 425.636 440.633 430.111 433.019C436.081 422.857 442.019 412.548 446.578 401.715C450.828 391.617 454.366 381.218 457.901 370.819L457.904 370.813C459.222 366.941 460.538 363.068 461.892 359.211L462.301 358.049L462.601 357.195L462.853 356.478L463.38 354.986L463.381 354.981L463.382 354.98V354.977C466.18 347.038 468.979 339.098 471.458 331.059C472.661 327.156 473.675 323.19 474.69 319.227C475.997 314.124 477.303 309.023 479.01 304.057C480.969 298.356 483.404 292.82 485.841 287.283C487.102 284.416 488.364 281.548 489.559 278.658C490.817 275.616 492.079 272.576 493.341 269.536L493.342 269.534C498.166 257.918 502.989 246.304 507.566 234.592C509.38 229.948 510.65 225.088 511.917 220.237L511.918 220.231L511.92 220.227V220.224L511.921 220.223V220.22L511.922 220.218V220.215L511.923 220.214V220.211L511.925 220.209V220.206L511.926 220.205V220.202C512.257 218.936 512.587 217.672 512.927 216.412C513.273 215.131 512.351 213.436 511.03 213.734C510.252 213.907 509.474 214.079 508.93 214.533C505.509 217.375 503.146 220.975 501.584 225.178C500.784 227.332 499.71 229.387 498.64 231.434C498.527 231.652 498.413 231.872 498.299 232.089C498.192 232.296 498.084 232.505 497.977 232.712C497.717 233.215 496.681 233.769 496.617 233.028C496.589 232.713 496.561 232.399 496.643 232.115C497.288 229.897 497.958 227.686 498.626 225.475L498.628 225.472L498.629 225.47L498.63 225.466V225.464L498.632 225.461V225.458L498.633 225.456L498.634 225.451L498.635 225.447L498.637 225.443L498.638 225.439C500.068 220.716 501.497 215.995 502.69 211.215C503.665 207.303 503.981 203.194 504.241 199.15C504.431 196.224 501.754 194.53 499.404 196.054C498.184 196.844 497.178 197.965 496.172 199.084C495.767 199.535 495.362 199.986 494.944 200.415C494.497 200.874 493.777 202.415 493.378 201.426C493.204 201.003 493.032 200.58 492.949 200.139C492.67 198.679 492.462 197.206 492.267 195.734C491.898 192.957 490.3 190.307 487.847 190.252C486.181 190.214 483.81 192.634 482.87 194.514C480.016 200.219 477.504 206.118 475.236 212.086C473.474 216.723 471.905 221.435 470.337 226.146L470.336 226.15C469.62 228.297 468.905 230.443 468.173 232.583C468.013 233.048 467.827 233.505 467.639 233.961C467.376 234.599 467.404 234.595 466.83 234.224C462.628 231.527 459.621 227.893 454.903 225.539C451.265 223.724 447.464 223.749 443.809 225.554C439.416 227.726 439.57 235.606 443.428 239.137C449.378 244.581 453.497 251.062 455.253 259.008C457.638 269.797 455.379 279.548 449.004 288.48L448.693 288.916L448.057 289.807C444.879 294.254 441.698 298.705 438.776 303.317C431.287 315.136 423.872 327.005 416.626 338.975L416.195 339.685C409.496 350.751 402.791 361.827 396.598 373.178C393.798 378.31 391.528 383.734 389.259 389.155C388.458 391.069 387.657 392.983 386.833 394.883C386.097 396.58 386.188 396.929 384.786 395.203C383.736 393.913 378.989 386.406 377.676 385.391C377.274 385.08 376.661 385.038 376.05 384.996C375.773 384.977 375.496 384.957 375.237 384.913C375.222 385.103 375.177 385.319 375.134 385.535C375.039 386.002 374.945 386.47 375.135 386.683C375.384 386.963 375.632 387.245 375.882 387.529C377.174 389.001 381.568 396.492 382.987 398.141C385.429 401.003 388.458 401.197 390.618 395.496C390.733 395.193 390.847 394.891 390.96 394.588C391.116 394.174 391.272 393.761 391.427 393.346L391.428 393.345C393.299 388.361 395.182 383.343 397.738 378.719C404.676 366.162 412 353.812 419.37 341.501C426.66 329.326 434.076 317.224 441.675 305.242C443.39 302.536 445.297 299.943 447.203 297.352L447.204 297.351C449.874 293.723 452.541 290.096 454.671 286.174C462.592 271.597 461.434 257.092 452.21 243.364C451.294 242.002 450.107 240.817 448.922 239.634C447.616 238.331 446.312 237.029 445.378 235.497C444.372 233.845 444.261 230.851 445.111 229.142C449.562 220.195 466.039 237.36 466.904 242.375C467.171 243.912 469.04 244.199 469.496 242.716C470.437 239.627 471.341 236.527 472.246 233.427L472.668 231.983C473.352 229.643 474.013 227.295 474.674 224.947L474.675 224.946L474.676 224.943V224.941L474.678 224.938V224.934L474.679 224.933V224.93L474.68 224.929V224.926L474.681 224.925V224.923L474.683 224.92V224.917L474.684 224.916V224.914L474.685 224.912V224.91C476.242 219.385 477.799 213.859 479.645 208.433C480.804 205.028 482.489 201.797 484.17 198.575C484.692 197.575 485.214 196.573 485.719 195.569C487.397 192.231 488.862 195.178 489.19 197.083C489.523 199.016 489.858 200.965 489.458 202.74C488.644 206.34 487.53 209.869 486.416 213.401C485.784 215.405 485.152 217.411 484.574 219.427C483.259 224.025 482.044 228.656 480.972 233.314C480.743 234.312 482.14 235.554 482.985 234.969L482.986 234.968C483.499 234.612 484.013 234.256 484.178 233.78C485.256 230.656 486.241 227.498 487.225 224.342C487.565 223.252 487.905 222.163 488.247 221.075C490.548 213.788 492.992 206.57 498.439 200.88C498.779 200.526 499.235 200.282 499.69 200.038C500.54 199.236 501.042 201.515 500.908 202.084C498.997 210.201 497.004 218.298 494.972 226.386C494.672 227.58 494.32 228.764 493.967 229.947C493.4 231.853 492.832 233.757 492.486 235.702C492.235 237.115 492.961 239.876 494.655 239.487C495.485 239.297 496.313 239.106 496.71 238.586C498.744 235.927 500.623 233.119 502.253 230.195C503.211 228.476 504.045 226.69 504.879 224.902C505.573 223.415 506.267 221.925 507.033 220.477C507.369 219.842 509.27 218.099 509.209 219.555C509.184 220.147 509.159 220.738 508.959 221.265C508.665 222.044 508.371 222.823 508.077 223.602C505.97 229.188 503.862 234.775 501.596 240.296C500.663 242.568 499.62 244.793 498.575 247.018L498.574 247.02V247.022L498.573 247.024L498.571 247.025V247.027L498.57 247.029V247.031L498.569 247.032C497.555 249.191 496.543 251.351 495.633 253.552C493.934 257.66 492.296 261.793 490.657 265.927C487.738 273.292 484.819 280.657 481.56 287.869C476.944 298.081 473.255 308.558 470.173 319.294C468.945 323.571 467.685 327.845 466.274 332.065C464.768 336.573 463.21 341.063 461.65 345.555L461.649 345.56C458.602 354.34 455.556 363.119 452.897 372.015C448.983 385.11 444.627 397.994 438.853 410.375C432.697 423.573 425.099 435.971 416.248 447.464C412.09 452.865 406.839 457.87 401.095 461.482C394.54 465.602 387.514 469.405 379.656 470.985C374.431 472.035 369.165 472.65 364.371 469.885C355.553 464.799 348.964 457.213 343.15 449.09C338.765 442.967 326.235 423.263 322.088 416.97C319.703 413.349 317.317 409.728 314.886 406.139C314.49 405.553 313.798 405.168 313.108 404.782C312.787 404.604 312.415 404.982 312.124 404.782C312.11 405.116 312.143 404.893 312.124 405.227C312.075 406.115 311.385 405.922 311.432 406.804C311.442 406.991 312.292 408.238 312.514 408.41C312.685 408.543 312.864 408.683 312.963 408.843C314.702 411.625 316.439 414.408 318.178 417.195L318.184 417.202L318.187 417.209ZM483.367 258.774C485.011 256.752 485.79 254.99 488.455 254.954C489.178 254.945 489.873 254.936 490.556 254.832C492.655 254.514 493.179 252.385 491.071 251.597C486.099 249.742 477.322 256.565 477.587 262.049C477.611 262.562 477.906 263.06 478.203 263.56C478.826 264.615 479.643 263.319 480.211 262.633C481.262 261.359 482.304 260.079 483.367 258.774ZM469.486 264.214C470.86 260.792 470.297 254.994 467.83 252.115C467.626 251.878 467.425 251.645 467.226 251.414C466.904 251.04 462.171 247.088 462.891 248.795C463.409 250.024 464.021 251.218 464.682 252.381C466.708 255.949 466.97 259.824 466.896 263.808C466.88 264.661 467.625 266.632 468.492 265.635C468.884 265.184 469.275 264.736 469.486 264.214Z" fill="#131314"/>
</svg>
