<svg width="513" height="412" viewBox="0 0 513 412" fill="none" xmlns="http://www.w3.org/2000/svg">
<path d="M198.719 336.221C198.719 336.221 214.526 328.863 220.428 323.744C226.331 318.625 233.668 305.908 233.668 305.908C233.668 305.908 314.263 363.499 366.814 355.284C378.921 353.391 402.514 345.428 404.019 331.397C408.127 293.083 351.286 283.293 363.703 263.864C371.281 252.004 394.825 269.655 394.825 269.655L492.478 317.181C492.478 317.181 458.741 399.466 376.871 402.763C276.16 406.819 198.719 336.221 198.719 336.221Z" fill="white"/>
<path d="M16.8112 273.949C16.8112 273.949 20.5971 277.161 30.8786 280.373C39.8009 283.16 52.5195 279.302 52.5195 279.302C53.0601 352.109 55.2243 330.16 52.5195 368.17C48.7317 368.17 -1.586 333.372 16.8112 273.949Z" fill="white"/>
<path fill-rule="evenodd" clip-rule="evenodd" d="M121.305 13.9748C120.389 13.6184 115.466 7.65508 109.217 6.5699C106.378 6.07655 108.955 9.6538 105.83 9.68662C96.5228 9.78229 81.3969 8.05182 78.5948 9.68662C76.5122 10.8975 81.0983 15.1266 78.5948 15.3208C54.9707 17.1535 18.9308 40.4919 11.1123 51.8145C8.62307 55.4181 28.7493 49.3047 25.5425 51.0858C21.9433 53.0854 17.9516 66.178 15.5656 76.2888C13.9134 83.252 12.8726 92.2129 12.5058 101.962C12.1996 110.378 12.3219 111.771 13.5466 116.372C14.9533 121.518 16.0548 123.032 17.9516 122.305C18.6255 122.063 18.9308 121.155 18.9308 119.46C18.9308 118.128 19.6654 114.131 20.583 110.559L22.1745 104.141L22.8476 106.805C23.7045 109.893 28.7218 119.46 33.2501 126.423C33.4946 126.792 34.5449 126.323 35.4928 124.056C36.3564 121.991 36.0057 118.692 37.4731 115.156C40.8135 107.103 47.3741 96.6315 54.9707 88.2493C66.1979 75.8621 69.9223 61.5249 80.447 50.0165C100.087 28.5399 124.736 15.3076 121.305 13.9748Z" fill="white"/>
<path fill-rule="evenodd" clip-rule="evenodd" d="M25.811 54.0104C22.6602 56.5174 17.9841 76.8498 17.9035 77.1893C16.2513 84.1525 14.6587 108.332 16.2863 112.91C17.9149 117.488 22.4734 100.986 22.4734 100.986C22.4734 100.986 29.3629 118.689 35.4514 123.543C35.7111 123.75 28.215 101.64 25.811 88.7333C22.6374 71.6959 27.6036 52.5838 25.811 54.0104Z" fill="#E5E5E5"/>
<path fill-rule="evenodd" clip-rule="evenodd" d="M139.628 407.785C145.502 406.513 161.207 405.607 165.002 404.093C168.797 402.578 176.046 385.325 180.207 367.099C183.206 353.657 186.993 334.78 185.28 331.57C185.027 331.116 184.101 322.415 186.565 325.256C192.042 331.57 198.543 341.484 219.058 323.72C224.645 318.881 232.051 312.637 230.101 307.117C224.645 291.671 200.995 260.569 197.389 258.213C193.079 255.396 171.29 257.79 138.865 248.32C102.092 237.581 86.7795 205.958 72.3891 210.074C51.1443 212.384 32.8684 233.861 25.8708 246.817C20.4564 256.841 17.2622 265.445 15.7461 272.878C22.0887 274.973 29.2533 283.585 51.1443 280.373C55.6847 304.485 54.679 338.965 53.6006 363.887L53.0596 379.947C53.8549 389.332 54.1864 388.041 58.4701 391.189C78.6318 406.351 114.644 413.14 139.628 407.785Z" fill="#F9ED37"/>
<path fill-rule="evenodd" clip-rule="evenodd" d="M277.345 233.474C275.754 232.929 274.041 231.718 272.939 230.325L271.103 228.084L277.59 221.727C287.565 212.039 295.213 202.109 301.822 190.303C304.025 186.367 309.593 173.228 309.593 171.957C309.593 171.533 310.267 169.837 311.063 168.081C312.286 165.539 313.204 164.57 315.835 163.117C318.956 161.3 322.506 160.695 324.035 161.724C326.973 163.662 326.973 169.777 324.035 180.312C320.792 191.877 316.448 200.172 307.452 212.1C306.044 213.916 303.413 217.489 301.516 219.971C296.437 226.632 293.133 229.84 288.666 232.323C284.26 234.745 281.69 235.048 277.345 233.474ZM321.281 228.024L325.687 229.962C326.601 230.379 336.68 235.17 348.786 240.926C368.305 250.206 393.094 261.991 393.245 261.991C393.49 261.991 394.638 259.364 394.897 256.3C395.509 249.701 397.773 240.739 400.404 234.503C401.628 231.718 402.607 228.236 402.607 227.934C402.607 227.796 401.613 227.399 399.984 226.749C398.045 225.975 395.209 224.843 392.083 223.362C376.662 216.036 346.493 201.081 342.76 198.84C339.089 196.721 338.354 196.539 338.354 197.932C338.354 199.749 334.622 208.165 331.745 212.705C330.216 215.188 327.217 219.668 325.076 222.635L321.281 228.024ZM392.205 251.093C393.959 252.099 390.919 253.575 390.186 253.817C385.861 254.181 380.771 253.377 376.6 250.972C374.42 249.442 357.248 240.003 345.858 233.741C340.651 230.879 336.652 228.681 335.846 228.206C333.275 226.693 330.828 225.058 330.399 224.573C329.115 222.938 330.339 222.212 333.948 222.514C336.119 222.696 388.414 248.919 392.205 251.093ZM182.557 366.497C184.393 351.081 186.502 337.578 187.002 332.576C187.502 332.076 190.476 335.09 195.047 339.732C196.432 341.14 197.674 342.402 198.528 343.247C225.209 369.465 264.923 390.535 306.167 400.404C326.728 405.369 341.354 407.125 360.996 407.125C393.979 407.125 419.986 400.707 443.607 386.6C444.729 385.929 445.78 385.314 446.782 384.727C455.016 379.903 459.921 377.029 473.347 362.078C488.405 345.306 501.801 306.373 506.269 292.932C508.227 286.876 513 262.794 513 256.785C513 249.67 510.491 246.31 507.064 242.859C501.006 236.985 492.806 234.867 486.014 237.409L482.832 238.62L481.852 235.411C480.445 230.567 477.508 226.693 472.98 223.786C466.249 219.365 465.27 219.063 459.211 219.063C454.499 219.063 453.214 219.305 450.216 220.698L446.727 222.272L445.994 220.092C444.586 215.612 439.865 209.366 436.202 207.559C432.954 205.957 427.331 205.81 423.413 206.53C414.846 208.104 408.727 212.039 406.218 217.55C405.483 219.244 404.566 220.577 404.199 220.577C403.893 220.577 391.838 217.246 377.457 210.948C375.031 209.883 372.752 208.883 370.613 207.945C344.79 196.62 339.192 194.165 339.701 191.09C340.129 188.486 340.007 187.033 339.273 184.793C337.987 181.039 336.519 180.01 332.358 180.01C329.053 180.01 329.053 180.01 329.42 178.375C331.379 169.111 331.318 163.783 329.237 160.392C327.83 158.152 326.177 157.244 322.383 156.699C320.18 156.396 319.14 156.578 316.692 157.91C315.04 158.758 313.633 159.363 313.51 159.242C313.388 159.121 313.816 155.791 314.489 151.854C319.507 122.731 315.631 97.6385 302.841 70.9976C302.719 70.7425 302.577 70.4414 302.415 70.0963C298.526 61.8369 282.892 28.6258 238.182 11.8679C236.158 11.1091 234.243 10.3757 232.402 9.67128C217.172 3.83831 207.047 -0.0400193 182.618 0.000311582C155.237 0.0453321 145.963 3.87582 127.911 12.0499C125.403 13.1998 123.2 13.8657 123.016 13.6237C122.832 13.3208 121.67 12.5948 120.507 11.9889C119.345 11.3839 116.836 9.87011 114.999 8.65925C109.737 5.14671 106.494 3.69386 104.842 4.05684C102.945 4.54175 102.945 6.11559 104.842 6.84249C105.637 7.14544 106.555 8.17435 106.922 9.20419C107.718 11.3839 108.635 11.6259 109.186 9.80916C109.431 9.14323 109.798 8.65926 109.982 8.78025C110.051 8.81402 110.284 8.92281 110.64 9.08695C111.535 9.50151 113.204 10.2753 114.999 11.141C117.509 12.3519 120.262 13.6237 120.997 13.9267C122.343 14.4106 121.915 14.7745 116.101 18.1651C93.3982 31.3646 74.9185 51.8902 64.5767 75.2614C62.9851 78.773 61.5784 80.9528 60.1091 82.1646C56.3762 85.2522 49.0336 94.0312 47.3198 97.4828C46.4022 99.3596 44.4438 102.266 42.9138 103.961C41.4455 105.657 39.854 107.837 39.3032 108.744C38.8141 109.713 38.325 110.379 38.1411 110.258C38.0188 110.076 38.2017 107.11 38.6302 103.659C39.5487 95.606 39.5487 93.4863 38.8141 93.3053C37.7126 93.0023 36.122 97.2408 35.448 102.508C34.9589 105.717 34.8366 110.561 35.1428 115.526L35.5096 123.398L31.1653 116.435C29.6714 114.106 28.2002 111.778 27.1546 110.124L27.1537 110.123L27.1518 110.119L27.1499 110.117L27.149 110.115L27.1471 110.112C26.4845 109.062 25.9934 108.287 25.7802 107.958C24.1886 105.657 23.271 102.205 23.944 101.055C24.3109 100.389 24.2502 100.086 23.6379 100.086C22.3534 100.086 19.8443 104.143 18.1921 108.805C17.3968 110.985 16.6005 112.801 16.3559 112.801C15.4383 112.801 15.8668 91.1255 16.846 84.1624C18.8651 70.418 24.1886 53.464 26.5755 53.464C27.0646 53.464 27.4931 53.222 27.4931 52.859C27.4931 51.7692 25.9025 52.1931 24.6171 53.5859C21.7411 56.6736 17.9475 66.1795 15.5606 76.2913C13.9084 83.2544 12.8685 92.2154 12.5007 101.963C12.1955 110.379 12.3178 111.772 13.5416 116.374C14.9492 121.52 16.0507 123.034 17.9475 122.308C18.6205 122.065 18.9267 121.157 18.9267 119.461C18.9267 118.129 19.6604 114.134 20.5789 110.561L22.1695 104.143L22.8426 106.807C23.6995 109.895 28.7168 119.462 33.245 126.424C36.3665 131.148 36.4272 131.45 37.468 138.837C38.0188 143.014 39.7317 153.177 43.7091 168.808C47.224 182.62 66.9806 196.321 71.9145 199.742L71.9174 199.744C72.5658 200.193 72.9572 200.465 73.0208 200.536C73.6331 201.202 74.49 201.565 74.9792 201.384C75.5299 201.202 75.8361 201.444 75.8361 202.109C75.8361 202.715 76.2645 203.502 76.7537 203.865C77.366 204.289 77.7945 205.924 77.9168 208.77C78.223 214.461 82.5057 225.36 85.8101 228.932C87.9524 231.233 92.419 232.202 97.3757 231.354C100.619 230.87 101.537 230.507 101.231 229.78C101.048 229.296 102.21 229.901 103.802 231.112C122.404 245.159 141.251 253.575 162.424 257.208C170.624 258.601 184.209 259.388 191.613 258.843C198.162 258.42 198.161 258.42 197.855 259.691C197.427 261.386 197.978 262.415 206.972 277.492C214.132 289.42 214.744 290.207 222.699 298.26C239.589 315.516 258.008 328.897 278.875 339.251C298.518 348.938 329.879 356.991 358.549 359.535C387.218 362.078 407.809 336.042 407.748 329.381C407.626 320.238 406.34 314.244 403.22 308.432C400.16 302.801 398.141 300.864 388.961 294.809C378.742 288.088 372.44 282.578 368.278 276.705C365.647 273.011 364.668 268.834 364.668 266.593C364.668 265.14 366.564 261.87 369.38 261.204C371.95 260.539 372.44 260.599 375.316 261.991C377.029 262.778 381.496 264.837 385.167 266.593C388.9 268.289 392.511 269.984 393.245 270.347C395.41 270.942 396.325 275.135 396.821 277.408C396.932 277.915 397.022 278.327 397.1 278.581C397.957 281.73 402.011 285.796 404.627 287.179C409.22 289.61 420.538 289.935 423.659 286.605C424.455 285.758 427.092 284.715 427.635 285.031C428.179 285.347 430.144 287.966 430.144 290.086C430.206 293.719 432.103 297.049 436.141 300.379C443.791 306.676 449.726 308.19 455.723 305.404C458.844 303.951 461.402 303.384 461.402 303.384C461.402 303.384 463.953 306.605 464.106 307.705C465.308 316.308 478.18 319.914 481.608 320.278C482.393 320.356 483.922 320.023 485.474 319.685C487.55 319.234 489.668 318.773 490.114 319.27C490.988 320.246 475.488 345.609 473.347 348.817C452.969 379.092 413.316 397.619 364.79 399.557C333.275 400.828 294.54 392.109 260.945 376.246C239.466 366.013 220.436 353.48 200.058 335.921C196.509 332.893 192.409 329.442 190.94 328.232C189.472 327.081 185.984 323.145 183.291 319.513C178.763 313.457 176.192 311.278 176.192 313.336C176.192 314.244 179.13 319.815 182.495 325.325C183.842 327.505 184.002 328.075 184.393 328.776C184.002 329.576 183.108 332.893 182.19 338.463C179.191 356.325 176.569 380.762 171.551 391.721C168.797 397.655 167.094 402.382 165.502 403.593C159.628 408.013 146.18 406.883 134.002 408.094C118.581 409.608 94.622 402.221 77.3044 395.803C72.7155 394.108 60.9044 389.203 60.1091 388.658C60.0617 388.611 59.7906 386.869 59.4124 384.438C59.3053 383.752 59.1906 383.012 59.0693 382.24C56.8663 367.285 53.8064 309.704 53.8064 283.062C53.8064 272.042 53.6841 269.62 52.9495 269.62C51.4195 269.62 50.8081 271.074 50.1351 276.281C48.6052 288.148 48.9113 350.089 50.5636 363.106L50.9304 366.074L48.8497 364.923C45.6676 363.106 33.5512 350.937 29.3292 345.306C25.7546 340.491 23.6303 334.326 22.0406 329.713C21.6709 328.64 21.3306 327.652 21.0064 326.783C12.1339 302.443 15.2544 275.131 27.4931 250.548C37.8965 229.598 50.6858 217.974 69.4111 212.342C72.47 211.434 75.1631 210.465 75.4692 210.223C76.6314 209.134 69.1656 209.679 65.0658 210.949C51.7257 215.006 37.7742 226.087 28.2893 240.255C14.9492 260.115 8.95172 289.42 13.1738 314.426C14.153 320.36 18.1304 333.196 19.2319 334.104C19.3296 334.2 19.8329 335.245 20.5941 336.826C22.6994 341.195 26.7755 349.656 29.696 353.48C33.245 358.263 43.9547 368.677 48.4213 371.886L51.2366 373.884L51.6651 378.789C52.4604 388.173 51.7192 392.654 56.002 395.803C66.7116 403.856 108.91 408.43 128.002 411.094C148.893 413.945 171.002 409.594 171.002 404.593C171.002 403.593 180.492 383.833 182.557 366.497ZM350.288 352.753C314.734 349.665 271.776 332.892 240.69 306.978C227.595 296.018 210.583 274.707 203.852 262.9C202.444 260.478 201.404 259.328 200.181 259.025C198.895 258.662 199.997 258.298 205.26 257.451C227.472 253.696 249.073 244.553 266.514 231.536L269.084 229.659L269.819 231.415C271.471 235.351 277.834 239.347 282.546 239.347C284.443 239.347 290.808 236.501 294.663 233.898L297.294 232.142L299.435 234.261C301.394 236.198 301.761 236.319 305.433 236.319C309.655 236.319 314.734 234.443 317.549 231.778L319.078 230.385L323.424 233.232C325.749 234.867 332.235 238.438 337.804 241.284C346.126 245.522 354.938 250.427 363.322 255.513L364.668 256.361L363.382 258.056C362.036 259.873 359.529 263.323 359.529 268.592C359.529 274.525 365.764 285.186 377.702 292.508C387.08 298.26 403.22 309.574 402.607 326.112C402.533 328.11 400.282 333.075 397.284 337.555C395.325 340.401 389.879 344.64 384.923 347.122C376.478 351.3 361.608 353.722 350.288 352.753ZM24.0057 80.9528C25.6579 81.3167 26.7594 81.8616 26.5139 82.1036C25.7185 82.8905 21.4965 82.5276 20.5173 81.5587C18.9874 80.1058 19.3542 79.076 21.4965 78.652C22.598 78.471 24.2502 77.5622 25.1678 76.6543C26.0863 75.7463 26.8816 75.3224 26.8816 75.6254C26.8816 76.4123 23.8218 79.197 22.2918 79.8029C21.3126 80.2268 21.6188 80.4078 24.0057 80.9528ZM48.3606 81.9217C50.1351 80.9528 49.7673 80.2869 47.6876 80.5898C45.6069 80.8928 45.4846 80.6508 46.8306 78.592C47.3814 77.8051 47.6876 76.6543 47.5643 76.0484C47.3814 75.2614 46.9529 75.6254 45.9737 77.5622C45.2391 78.955 44.1992 80.1058 43.7091 80.1058C42.1801 80.1058 42.0569 81.3167 43.5262 81.8616C45.423 82.6486 46.8913 82.6485 48.3606 81.9217ZM27.1878 48.8625C25.7185 49.1045 21.1297 50.9213 17.0906 52.9191C12.9908 54.8568 9.50247 56.4916 9.2579 56.4316C3.01584 55.7657 11.7054 45.4719 27.4931 34.9372C42.6077 24.8254 52.8272 19.497 62.3121 16.7723C68.248 15.0765 74.9185 14.8346 76.8153 16.2274C77.8552 17.0143 77.4883 17.0753 72.9601 17.1353C63.169 17.1353 51.848 22.1007 33.4289 34.2703C23.8834 40.5675 12.8069 49.5894 12.8069 51.0423C12.8069 51.3452 14.5814 50.7393 16.7844 49.7714C21.4965 47.6517 26.3309 46.5618 28.4723 47.0467C30.7368 47.6517 30.2468 48.4386 27.1878 48.8625ZM50.8688 54.0699C56.6217 52.9191 56.8663 52.859 56.8663 52.2531C56.8663 51.9511 54.6633 51.6482 51.9096 51.5272L46.9529 51.3452L51.5418 46.1988C54.051 43.3532 56.9886 40.5075 58.0284 39.8416C60.293 38.3878 60.4153 37.3589 58.5792 36.753L57.1725 36.329L58.7015 35.7841C59.5584 35.4821 61.1499 35.3601 62.2514 35.5421C63.9037 35.7841 64.2705 35.6631 64.0866 34.8152C63.9037 33.9683 63.2306 33.7863 60.2314 33.8473C51.4812 33.9683 47.7482 36.269 54.6017 37.3589C56.4985 37.6618 58.0901 38.1458 58.0901 38.4487C58.0901 38.6907 57.7839 38.9327 57.417 38.9327C56.2539 38.9327 46.4022 48.8025 45.1784 51.2242C43.2816 54.7968 44.3215 55.3417 50.8688 54.0699ZM91.2569 30.5777C89.4824 30.6987 89.0539 31.0007 89.1762 31.8486L89.1951 31.9724C89.2634 32.4197 89.3032 32.6777 89.2018 32.7555C89.0643 32.8606 88.6709 32.6402 87.7458 32.1206L87.5846 32.0305C86.4225 31.4246 86.3002 31.1226 86.9732 30.6377C87.4017 30.2747 88.5638 29.7298 89.4824 29.5478L91.1953 29.1239L89.9108 27.792C89.2368 27.0051 88.87 26.2782 89.0539 26.0362C89.543 25.5523 95.5405 26.2182 96.3965 26.8841C96.7643 27.1861 97.315 27.1261 97.6819 26.7631C98.5388 25.9152 99.701 26.5812 99.701 27.913C99.701 28.6399 99.518 28.6999 98.9673 28.155C98.4772 27.671 98.0487 27.671 97.498 28.095C97.0089 28.5189 96.642 28.5189 96.3358 28.034C96.1519 27.7311 94.9898 27.429 93.766 27.429C92.6361 27.429 92.1024 27.429 91.9934 27.642C91.8958 27.8324 92.1403 28.1944 92.6029 28.8819C93.5793 30.391 93.5215 30.3957 91.2777 30.5758L91.2569 30.5777ZM81.9549 14.4716C81.9549 13.6847 81.2212 12.2918 80.3027 11.3839L78.5898 9.68815L87.7685 10.0511C92.8475 10.2941 98.5995 10.839 100.619 11.3839C102.639 11.8679 104.964 12.2309 105.821 12.2309C107.106 12.2309 106.861 11.9889 104.475 10.7171C100.313 8.59828 94.9898 7.56938 84.7702 6.84249C72.5316 5.9946 66.3512 7.14544 67.5133 10.1721C67.6972 10.778 68.6764 11.081 70.1448 11.081C73.143 11.081 78.0391 12.8368 79.6913 14.4716C81.4658 16.2274 81.9549 16.2274 81.9549 14.4716ZM52.0926 174.803C57.0492 181.1 63.5975 188.244 66.6574 190.666C68.4925 192.12 70.0841 193.33 70.2064 193.33C70.267 193.33 68.921 190.545 67.2081 187.154C60.293 173.531 56.2539 159.968 54.3571 144.347C53.9287 140.896 53.2557 137.989 52.521 136.778C51.0527 134.356 51.0527 131.208 52.5826 128.241C53.3779 126.667 53.8064 124.669 53.8064 122.489V119.159L50.8688 122.186C47.9928 125.154 45.2391 126.364 45.2391 124.548C45.2391 123.216 49.7673 116.798 52.1542 114.8C54.051 113.225 54.2955 112.68 54.9079 107.958C55.3363 105.112 56.3155 100.086 57.1109 96.7559C57.9678 93.4263 58.4569 90.5806 58.3346 90.4596C57.9062 90.0357 43.5262 106.377 41.5678 111.59C41.1374 112.735 39.9772 114.739 39.0586 115.95L37.468 117.971C37.468 117.971 37.9619 120.802 38.5079 124.358C39.0596 127.952 39.3184 130.423 39.5497 132.623C39.8577 135.566 40.1156 138.027 40.9554 142.047C41.9346 147.011 42.9138 151.309 43.1584 151.612C43.3423 151.976 44.1376 154.761 44.9339 157.849C46.6468 164.691 49.5227 171.472 52.0926 174.803ZM300.415 232.081L299.13 230.809C299.13 230.809 320.458 203.997 324.281 194.117C327.196 186.578 328.913 184.44 331.229 184.44C332.525 184.44 333.582 184.732 334.071 185.459C334.928 186.73 335.753 188.305 334.652 193.693C332.817 202.412 330.001 208.165 321.556 220.577C319.599 223.423 317.09 226.572 315.988 227.661C313.418 230.022 307.636 232.444 304.27 232.989C302.129 233.292 301.516 233.171 300.415 232.081Z" fill="#1D1D20"/>
<path d="M469.863 291.313C477.476 270.789 476.324 266.416 475.003 265.989C475.003 265.989 472.096 267.624 470.811 271.074C468.424 277.553 460.256 294.506 457.196 297.534C453.585 301.107 453.585 301.107 449.914 301.107C446.243 301.107 435.653 295.636 434.212 290.243C431.904 281.614 441.837 251.638 442.081 249.944L440.429 248.793C439.327 249.823 425 292.812 406.161 281.61C404.003 280.327 399.429 274.284 399.063 271.074C397.024 261.75 406.379 229.145 407.97 222.448C409.394 216.453 416.809 210.89 425.926 210.89C439.939 210.89 438.057 223.01 444.334 227.281C447.116 229.173 451.687 225.742 453.096 225.482C460.989 224.029 464.015 225.721 469.801 230.265C474.269 233.773 477.574 240.715 481.211 243.161C483.232 244.521 485.377 242.663 486.079 242.315C488.958 240.884 495.135 241.951 496.849 243.161C499.361 244.246 505.516 250.1 506.489 253.505C510.896 268.938 496.979 303.151 491.726 309.57C483.029 320.193 462.25 311.837 469.863 291.313Z" fill="white"/>
<path fill-rule="evenodd" clip-rule="evenodd" d="M118.061 235.075C134.829 245.55 152.117 252.391 171.821 254.268C187.364 255.721 208.321 253.724 223.375 248.879C236.042 244.823 253.176 233.584 264.619 224.079C286.833 205.672 300.846 176.92 306.965 146.405C307.822 142.106 309.128 131.3 309.067 120.583C309.067 108.109 303.519 74.0252 286.709 54.3719C252.041 13.8366 195.052 -4.42301 147.157 11.1794C129.881 16.807 111.485 27.0041 97.5944 40.3246C80.0929 57.2176 67.1813 80.2259 62.0407 103.718C56.6555 128.543 63.6607 158.212 75.8377 182.552C85.5681 201.927 101.6 224.721 118.061 235.075ZM281.448 161.905C269.943 196.114 239.958 221.666 202.263 229.416C196.511 230.566 192.533 230.99 184.456 231.111C178.765 231.293 173.075 231.232 171.911 231.111C145.537 227.962 125.466 218.336 106.985 200.05C98.9082 191.998 95.4815 187.638 90.4632 179.04C82.5698 165.417 78.3468 151.49 77.0624 134.718C72.6565 77.2592 114.207 29.3658 172.707 24.4004C195.654 22.4627 221.11 29.4258 240.448 42.9883C247.608 48.0137 260.58 60.7291 264.619 66.6625C266.271 69.0242 282.303 92.2144 285.119 105.535C288.729 122.852 287.322 144.527 281.448 161.905Z" fill="white"/>
<path fill-rule="evenodd" clip-rule="evenodd" d="M172.409 225.38C156.07 223.321 139.854 217.568 126.759 209.031C118.987 204.006 107.238 192.199 101.548 183.783C93.4087 171.674 88.0236 158.716 85.3922 144.79C83.4954 134.678 83.557 119.118 85.4538 110.096C87.4122 100.893 89.9204 93.869 94.3879 84.969C99.5892 74.6753 105.097 67.1072 113.358 58.9331C127.432 45.0068 143.771 36.1668 163.23 31.9283C169.533 30.5965 192.358 29.5066 193.154 30.5364C193.338 30.8385 194.561 31.6263 195.846 32.2922C197.131 33.0182 200.558 35.5619 203.373 38.0436C207.595 41.6771 209.492 43.9779 213.163 49.6692C215.673 53.5447 217.692 57.0563 217.692 57.3593C217.692 58.0252 219.65 59.2361 220.751 59.2361C222.281 59.2361 223.322 54.6946 223.627 46.7025C223.811 42.2821 224.178 38.6495 224.424 38.6495C225.28 38.6495 234.704 43.7959 239.11 46.7025C247.738 52.3939 256.366 60.386 262.73 68.742C265.606 72.4955 266.035 73.4644 266.035 75.7652C266.035 77.8849 266.647 79.5197 268.544 82.7893C273.317 91.0234 277.049 101.377 279.314 112.821C280.782 120.511 280.782 135.042 279.252 143.095C275.091 165.256 262.73 187.295 246.636 201.281C232.99 213.088 218.488 220.354 201.353 223.927C195.479 225.198 177.855 226.045 172.409 225.38ZM128.656 183.964C129.207 183.359 129.574 182.451 129.39 182.028C129.335 181.9 128.569 181.544 127.448 181.022C124.833 179.806 120.288 177.692 118.318 175.488C110.486 166.648 107.609 160.048 105.834 146.425C104.121 133.165 105.56 124.201 108.649 109.793C110.156 102.765 114.161 96.9595 116.653 93.3485C118.347 90.892 119.342 89.4505 118.376 89.3285C115.989 88.9646 115.622 89.1466 113.113 91.5083C107.728 96.5937 105.28 100.65 102.71 108.461C98.7323 120.692 97.9635 153.745 105.834 168.646C113.705 183.547 127.249 185.539 128.656 183.964ZM215.673 133.104C214.634 142.51 210.227 156.113 205.086 162.046C202.699 164.832 193.94 169.615 186.545 168.646C179.402 167.71 173.816 164.408 169.043 157.324C164.944 151.208 162.826 143.785 161.395 134.436C158.922 118.293 169.716 99.5003 174.367 94.8379C179.079 90.0545 182.445 88.3596 186.729 88.2987C190.889 88.2987 193.582 89.2075 197.804 92.1742C205.515 97.5026 217.692 114.827 215.673 133.104ZM133.184 83.0313C134.408 81.6385 134.592 80.9725 134.224 78.3688C133.98 75.9471 133.491 74.9782 132.205 73.9493C129.941 72.1326 127.126 72.1326 125.046 74.0703C123.577 75.4631 123.393 75.9471 123.577 79.2768C123.76 82.8493 123.882 83.0913 125.903 84.1812C128.595 85.635 131.226 85.211 133.184 83.0313ZM171.369 45.6727C160.354 53.4838 155.581 56.6924 150.624 59.72C146.708 62.1418 145.484 62.2027 145.484 60.023C145.484 58.8722 146.341 57.6013 148.544 55.6025L151.603 52.8178L145.668 52.0309C138.998 51.183 132.511 49.3663 131.104 47.9734C128.779 45.6127 130.798 45.0677 137.406 46.2786C140.344 46.7626 146.034 47.3685 150.074 47.4895L157.417 47.7924L162.741 43.9779C174.428 35.6219 186.545 30.8994 192.358 32.3523C195.968 33.2002 195.541 34.169 191.44 34.653C186.729 35.1979 183.852 36.7727 171.369 45.6727Z" fill="white"/>
<path fill-rule="evenodd" clip-rule="evenodd" d="M127.324 207.581C119.449 202.579 107.545 190.827 101.779 182.449C93.5329 170.396 88.0767 157.499 85.4105 143.638C83.4887 133.573 83.5511 118.085 85.473 109.105C87.4572 99.9436 89.9985 92.9531 94.525 84.0934C99.7949 73.8484 105.375 66.3154 113.745 58.1793C121.953 50.201 85.473 83.1953 94.525 142.229C101.779 191.699 132.955 211.187 127.324 207.581Z" fill="#E5E5E5"/>
<path d="M215.047 43.1115C213.395 40.7498 209.907 36.9353 207.398 34.6346C204.889 32.3338 203.237 30.457 203.727 30.457C205.073 30.457 215.353 33.2417 217.923 34.3316C220.065 35.2395 220.126 35.3614 219.575 37.2382C219.27 38.3281 219.024 41.0528 219.024 43.2926C219.024 45.5933 218.841 47.41 218.597 47.41C218.291 47.41 216.761 45.4723 215.047 43.1115Z" fill="white"/>
<path d="M90.5244 226.511C88.0153 225.24 87.4645 224.513 84.2823 218.277C79.6935 209.437 79.5702 207.378 83.9155 212.403C85.6284 214.401 89.6068 218.519 92.7274 221.546C98.0509 226.632 98.2955 226.996 96.5209 226.754C95.2365 226.572 94.7464 226.693 95.0526 227.177C95.7873 228.267 93.4611 227.965 90.5244 226.511Z" fill="white"/>
<path fill-rule="evenodd" clip-rule="evenodd" d="M193.069 336.825C192.562 335.631 193.128 334.257 194.333 333.754L195.652 333.2C208.471 327.774 215.827 324.513 220.827 319.337C225.826 314.161 226.424 306.558 227.364 301.932C227.621 300.662 230.527 302.891 231.81 303.146C233.093 303.402 233.924 304.638 233.666 305.908C232.537 311.47 229.496 316.773 224.6 321.806C219.721 326.823 210.275 332.202 196.173 338.076C194.966 338.578 193.577 338.019 193.069 336.825Z" fill="#1D1D20"/>
<path fill-rule="evenodd" clip-rule="evenodd" d="M251.041 95.238C252.166 94.5749 253.621 94.9407 254.29 96.0531C260.993 107.195 264.584 119.932 264.584 133.183C264.584 173.328 231.693 205.872 191.12 205.872C180.339 205.872 169.882 203.571 160.307 199.187C159.119 198.643 154.631 194.314 159.151 196.075C163.67 197.836 181.156 201.788 191.246 201.788C229.201 201.788 256.052 170.737 256.052 133.183C256.052 120.782 251.042 109.775 250.217 98.4523C250.122 97.1392 249.916 95.9002 251.041 95.238Z" fill="#1D1D20"/>
<path fill-rule="evenodd" clip-rule="evenodd" d="M16.3378 272.703C17.1757 271.708 18.6697 269.698 19.6754 270.526C23.8008 273.926 28.2039 277.865 32.9131 278.626C37.8129 279.418 43.6265 279.418 50.3454 278.612C51.645 278.457 52.8261 279.373 52.9835 280.659C53.1408 281.944 52.2147 283.112 50.9151 283.268C43.7801 284.122 37.5276 284.122 32.1491 283.255C26.5801 282.355 21.4016 279.928 16.6421 276.006C15.6363 275.176 15.5008 273.698 16.3378 272.703Z" fill="#1D1D20"/>
<path d="M66.6503 190.667C63.5904 188.245 57.0431 181.1 52.0864 174.803C49.5166 171.473 46.6406 164.692 44.9268 157.85C44.1315 154.762 43.3362 151.977 43.1523 151.614C42.9077 151.311 41.9285 147.012 40.9493 142.047C39.481 135.023 39.7909 132.76 38.5017 124.359C37.9557 120.802 37.4609 117.972 37.4609 117.972L39.0525 115.951C39.9701 114.74 41.1313 112.736 41.5607 111.591C43.5191 106.377 57.9 90.0358 58.3285 90.4598C58.4507 90.5808 57.9607 93.4264 57.1038 96.757C56.3085 100.087 55.3292 105.112 54.9008 107.958C54.2894 112.681 54.0448 113.226 52.1471 114.8C49.7612 116.799 45.2329 123.216 45.2329 124.549C45.2329 126.365 47.9867 125.154 50.8626 122.187L53.7993 119.159V122.49C53.7993 124.67 53.3718 126.667 52.5755 128.241C51.0456 131.209 51.0456 134.357 52.5149 136.779C53.2486 137.99 53.9225 140.896 54.3501 144.347C56.2478 159.969 60.2859 173.532 67.201 187.155C68.9149 190.546 70.2609 193.331 70.1993 193.331C70.077 193.331 68.4864 192.12 66.6503 190.667Z" fill="white"/>
<path fill-rule="evenodd" clip-rule="evenodd" d="M321.277 228.025L325.683 229.963C326.597 230.379 336.676 235.171 348.782 240.927C368.301 250.207 393.09 261.992 393.241 261.992C393.486 261.992 394.634 259.365 394.893 256.301C395.505 249.702 397.769 240.74 400.4 234.503C401.624 231.719 402.603 228.237 402.603 227.935C402.603 227.796 401.609 227.399 399.98 226.75C398.041 225.976 395.205 224.844 392.079 223.363C376.658 216.037 346.489 201.081 342.756 198.841C339.085 196.722 338.35 196.54 338.35 197.933C338.35 199.749 334.618 208.165 331.741 212.706C330.212 215.189 327.213 219.669 325.072 222.636L321.277 228.025ZM392.201 251.093C393.955 252.1 390.915 253.576 390.182 253.818C385.857 254.182 380.767 253.377 376.596 250.972C374.416 249.443 357.244 240.003 345.854 233.742C340.647 230.88 336.648 228.682 335.842 228.207C333.271 226.693 330.824 225.058 330.395 224.574C329.111 222.939 330.335 222.213 333.944 222.515C336.115 222.697 388.41 248.92 392.201 251.093Z" fill="white"/>
<path d="M277.348 233.474C275.756 232.929 274.043 231.717 272.942 230.325L271.105 228.085L277.592 221.727C287.566 212.04 294.91 201.452 301.519 189.646C303.722 185.71 310.269 169.838 311.064 168.082C312.289 165.539 313.206 164.57 315.838 163.117C318.958 161.301 322.507 160.695 324.037 161.725C326.975 163.661 326.975 169.778 324.037 180.312C320.795 191.877 316.449 200.172 307.454 212.101C306.047 213.916 303.415 217.489 301.519 219.972C296.44 226.632 293.135 229.841 288.668 232.323C284.262 234.745 281.692 235.048 277.348 233.474Z" fill="#35D5C3"/>
<path d="M300.414 232.082L299.129 230.811C299.129 230.811 320.458 203.998 324.279 194.118C327.196 186.579 328.913 184.44 331.228 184.44C332.523 184.44 333.581 184.733 334.07 185.46C334.927 186.732 335.753 188.306 334.651 193.694C332.815 202.413 330.001 208.165 321.556 220.578C319.597 223.423 317.089 226.572 315.988 227.662C313.417 230.023 307.635 232.445 304.269 232.99C302.128 233.292 301.516 233.171 300.414 232.082Z" fill="#35D5C3"/>
<path fill-rule="evenodd" clip-rule="evenodd" d="M336.241 204.044C337.476 201.251 338.355 198.814 338.355 197.933C338.355 196.54 339.089 196.722 342.761 198.841C346.493 201.081 376.662 216.037 392.082 223.363C397.834 226.087 402.608 227.632 402.608 227.935C402.608 228.237 334.933 207.006 336.241 204.044Z" fill="#E5E5E5"/>
</svg>
