<svg width="38" height="38" viewBox="0 0 38 38" fill="none" xmlns="http://www.w3.org/2000/svg">
<path d="M1.99074 0.341558C1.53533 -0.113853 0.796965 -0.113853 0.341557 0.341558C-0.113852 0.796969 -0.113852 1.53534 0.341557 1.99075L17.3508 19.0001L0.341734 36.0092C-0.113675 36.4647 -0.113675 37.203 0.341734 37.6584C0.797144 38.1138 1.53551 38.1138 1.99092 37.6584L19 20.6493L36.0091 37.6584C36.4645 38.1138 37.2029 38.1138 37.6583 37.6584C38.1137 37.203 38.1137 36.4647 37.6583 36.0092L20.6492 19.0001L37.6584 1.99075C38.1138 1.53534 38.1138 0.796969 37.6584 0.341558C37.203 -0.113853 36.4647 -0.113853 36.0093 0.341558L19 17.3509L1.99074 0.341558Z" fill="#1D1D20"/>
</svg>
