<svg width="56" height="48" viewBox="0 0 56 48" fill="none" xmlns="http://www.w3.org/2000/svg">
<path d="M55.5815 1.69983C55.5801 1.14058 55.1258 0.6875 54.5658 0.6875H54.5638L1.67767 0.798404C1.40819 0.799081 1.15022 0.906603 0.959954 1.09663C0.769692 1.28733 0.663389 1.54565 0.664066 1.81479L0.74667 39.8472C0.748025 40.4071 1.20235 40.8595 1.76231 40.8595H1.76434L16.3434 40.8291L15.5675 41.9219C15.3258 42.2634 15.3176 42.7178 15.5479 43.0668C15.7781 43.4157 16.1999 43.5888 16.6082 43.5009L21.1514 42.5312L21.947 46.7807C22.0262 47.2033 22.3634 47.5299 22.7886 47.5969C22.8415 47.605 22.8936 47.6091 22.9457 47.6091C23.3141 47.6091 23.6601 47.4082 23.8388 47.0769L27.2317 40.8061L29.7342 40.8014L33.0506 47.1425C33.2273 47.4806 33.576 47.6875 33.9498 47.6875C33.9972 47.6875 34.0453 47.6841 34.0933 47.6774C34.5192 47.6165 34.8612 47.2953 34.9465 46.874L35.8037 42.636L40.328 43.6686C40.7356 43.7606 41.1594 43.5963 41.3944 43.25C41.6293 42.9038 41.628 42.4494 41.391 42.1058L40.4769 40.7784L54.6498 40.7493C54.9193 40.7486 55.1772 40.6418 55.3675 40.4511C55.5578 40.2604 55.6641 40.002 55.6641 39.7329L55.5815 1.69983ZM23.4156 43.5915L22.9559 41.1368C22.9051 40.8683 22.7487 40.6303 22.5205 40.4788C22.293 40.3266 22.0141 40.2725 21.7453 40.3307L18.7308 40.9738L18.9936 40.6039C19.1452 40.4842 19.261 40.3239 19.3247 40.138L22.853 35.1703C24.0176 36.1793 25.4063 36.8541 26.9047 37.1415L25.8532 39.0857C25.7238 39.2183 25.6317 39.3853 25.5898 39.5726L23.4156 43.5915ZM35.2958 28.6162C35.2837 30.4069 34.5727 32.0867 33.2937 33.3451C32.0269 34.5914 30.3544 35.2751 28.5784 35.2751C28.5615 35.2751 28.5446 35.2751 28.527 35.2751C26.732 35.263 25.0494 34.5536 23.7887 33.2768C22.5286 32.0008 21.8421 30.3108 21.8543 28.5202C21.8813 24.8347 24.893 21.8531 28.5778 21.8531C28.5927 21.8531 28.6089 21.8531 28.6238 21.8531C32.3295 21.8815 35.3229 24.9145 35.2958 28.6162ZM28.33 38.776L28.5046 38.4528L28.6732 38.7753L28.33 38.776ZM35.239 40.4274C34.9722 40.3659 34.6919 40.4152 34.4624 40.564C34.2321 40.7121 34.0717 40.9467 34.0175 41.2152L33.5225 43.6652L30.1229 37.1632C31.626 36.8974 33.0249 36.2442 34.2051 35.2501L38.2412 41.1117L35.239 40.4274ZM39.0815 38.7537L35.6249 33.7333C36.7123 32.2611 37.3149 30.4948 37.3271 28.6304C37.3623 23.8108 33.465 19.8616 28.6387 19.8251C28.6184 19.8251 28.5981 19.8251 28.5784 19.8251C23.7806 19.8251 19.8582 23.7074 19.823 28.5066C19.8101 30.371 20.3877 32.1455 21.4541 33.6332L17.7856 38.7977L2.77523 38.8294L2.69737 2.82577L53.5522 2.71892L53.6287 38.7239L39.0815 38.7537Z" fill="white"/>
<path d="M37.9528 8.776L18.5494 8.63738C18.5467 8.63738 18.5447 8.63738 18.5419 8.63738C17.984 8.63738 17.5304 9.08708 17.5263 9.6443C17.5223 10.2049 17.9739 10.662 18.5345 10.6661L37.9379 10.8047C37.9406 10.8047 37.9426 10.8047 37.9453 10.8047C38.5026 10.8047 38.9569 10.355 38.9609 9.7978C38.965 9.2372 38.5134 8.78006 37.9528 8.776Z" fill="white"/>
<path d="M37.9189 13.3535L18.5183 13.2155C18.5155 13.2155 18.5135 13.2155 18.5108 13.2155C17.9529 13.2155 17.4992 13.6652 17.4952 14.2224C17.4911 14.783 17.9427 15.2402 18.5034 15.2442L37.904 15.3822C37.9067 15.3822 37.9094 15.3822 37.9115 15.3822C38.4687 15.3822 38.923 14.9325 38.9271 14.3753C38.9312 13.8147 38.4795 13.3575 37.9189 13.3535Z" fill="white"/>
</svg>
