<svg width="69" height="68" viewBox="0 0 69 68" fill="none" xmlns="http://www.w3.org/2000/svg">
<path d="M61.1147 15.3945L56.4638 10.3313C56.3607 10.2263 56.238 10.143 56.103 10.0861C55.9679 10.0293 55.823 10 55.6767 10C55.5303 10 55.3855 10.0293 55.2504 10.0861C55.1153 10.143 54.9927 10.2263 54.8896 10.3313L50.2386 15.3945C50.091 15.6107 50.026 15.8737 50.0557 16.1347C50.0853 16.3957 50.2077 16.6369 50.4 16.8136C50.5923 16.9903 50.8414 17.0905 51.1012 17.0956C51.3611 17.1006 51.6139 17.0103 51.8128 16.8412L54.9611 13.4416V54.83H47.8058V19.0256C47.8058 18.7378 47.6927 18.4619 47.4914 18.2584C47.2901 18.0549 47.0171 17.9406 46.7325 17.9406H38.146C37.8614 17.9406 37.5884 18.0549 37.3871 18.2584C37.1858 18.4619 37.0727 18.7378 37.0727 19.0256V54.83H33.4951V28.4288C33.4951 28.141 33.382 27.8651 33.1807 27.6616C32.9794 27.4581 32.7064 27.3438 32.4217 27.3438H23.8353C23.5507 27.3438 23.2777 27.4581 23.0764 27.6616C22.8751 27.8651 22.762 28.141 22.762 28.4288V54.83H19.8999V37.1086C19.8999 36.8209 19.7868 36.5449 19.5855 36.3414C19.3842 36.138 19.1112 36.0237 18.8266 36.0237H10.2401C9.95548 36.0237 9.68248 36.138 9.48119 36.3414C9.27991 36.5449 9.16683 36.8209 9.16683 37.1086V54.83H7.37799C7.09333 54.83 6.82033 54.9443 6.61905 55.1478C6.41777 55.3513 6.30469 55.6273 6.30469 55.915C6.30469 56.2028 6.41777 56.4787 6.61905 56.6822C6.82033 56.8857 7.09333 57 7.37799 57H56.0344C56.3191 57 56.5921 56.8857 56.7934 56.6822C56.9947 56.4787 57.1077 56.2028 57.1077 55.915V14.2227L59.5406 16.8701C59.7394 17.0392 59.9923 17.1296 60.2521 17.1245C60.5119 17.1195 60.7611 17.0193 60.9534 16.8426C61.1457 16.6658 61.268 16.4246 61.2977 16.1636C61.3273 15.9027 61.2623 15.6397 61.1147 15.4235V15.3945ZM39.2193 20.1106H45.6592V54.83H39.2193V20.1106ZM24.9086 29.5138H31.3484V54.83H24.9086V29.5138ZM11.3134 38.1936H17.7533V54.83H11.3134V38.1936Z" fill="white"/>
</svg>
