<svg width="69" height="68" viewBox="0 0 69 68" fill="none" xmlns="http://www.w3.org/2000/svg">
<path d="M33.8047 21.7787C30.7203 21.7787 28.211 24.2612 28.211 27.3125C28.211 30.3637 30.7203 32.8462 33.8047 32.8462C36.889 32.8462 39.3984 30.3637 39.3984 27.3125C39.3984 24.2612 36.889 21.7787 33.8047 21.7787ZM33.8047 31.2226C31.6252 31.2226 29.8522 29.4686 29.8522 27.3125C29.8522 25.1563 31.6252 23.4023 33.8047 23.4023C35.9836 23.4023 37.7572 25.1563 37.7572 27.3125C37.7572 29.4686 35.9842 31.2226 33.8047 31.2226Z" fill="white"/>
<path d="M43.6589 27.2854C43.6589 21.8642 39.2009 17.4534 33.7204 17.4534C28.2405 17.4534 23.7819 21.8642 23.7819 27.2854C23.7819 32.7066 28.2405 37.1174 33.7204 37.1174C39.2004 37.1174 43.6589 32.7066 43.6589 27.2854ZM33.7204 35.4938C29.1454 35.4938 25.4231 31.8115 25.4231 27.2854C25.4231 22.7593 29.1454 19.077 33.7204 19.077C38.2955 19.077 42.0177 22.7593 42.0177 27.2854C42.0177 31.8115 38.2955 35.4938 33.7204 35.4938Z" fill="white"/>
<path d="M47.2903 51.2519H44.212C40.3038 51.2519 37.1172 48.1682 36.9886 44.3327C45.1223 42.8465 51.3047 35.7822 51.3047 27.3125C51.3047 17.7662 43.4538 10 33.8047 10C24.155 10 16.3047 17.7662 16.3047 27.3125C16.3047 35.6924 22.3552 42.6993 30.3609 44.2861C30.2564 48.1438 27.0589 51.2514 23.1353 51.2514H20.0575C19.604 51.2514 19.2369 51.6151 19.2369 52.0632V56.1882C19.2369 56.6363 19.604 57 20.0575 57H47.2909C47.7439 57 48.1115 56.6363 48.1115 56.1882V52.0632C48.1109 51.6156 47.7439 51.2519 47.2903 51.2519ZM17.9459 27.3125C17.9459 18.6619 25.0599 11.6236 33.8047 11.6236C42.5489 11.6236 49.6635 18.6614 49.6635 27.3125C49.6635 35.9635 42.5489 43.0013 33.8047 43.0013C25.0599 43.0013 17.9459 35.9635 17.9459 27.3125ZM46.4697 55.3769H20.8776V52.8755H23.1348C27.88 52.8755 31.7565 49.1699 31.9895 44.5318C32.5864 44.593 33.192 44.6249 33.8047 44.6249C34.3288 44.6249 34.8463 44.5979 35.3589 44.5529C35.6023 49.1813 39.4744 52.8755 44.2126 52.8755H46.4703L46.4697 55.3769Z" fill="white"/>
</svg>
