<svg width="69" height="68" viewBox="0 0 69 68" fill="none" xmlns="http://www.w3.org/2000/svg">
<path d="M61.0393 43.9321C60.8695 43.7609 60.6429 43.6541 60.4003 43.6681L56.5345 43.7033H48.7514V39.7584C48.7514 39.2553 48.3497 38.848 47.8548 38.848H29.3238C28.8288 38.848 28.4271 39.2553 28.4271 39.7584V56.7517C28.4271 57.2548 28.8288 57.662 29.3238 57.662H32.9869C33.1406 59.5283 34.6834 61 36.561 61C38.4356 61 39.9755 59.5283 40.1291 57.662H47.8548C47.96 57.662 48.0598 57.6402 48.1537 57.6062C48.2475 57.6402 48.3473 57.662 48.4525 57.662H51.0558C51.2095 59.5283 52.7529 61 54.6305 61C56.5052 61 58.045 59.5283 58.1987 57.662H60.408C60.903 57.662 61.3047 57.2548 61.3047 56.7517V44.5784C61.3053 44.3357 61.209 44.1032 61.0393 43.9321ZM30.221 40.6694H46.9587V55.8419H39.8159C39.2492 54.5875 38.0052 53.7129 36.5616 53.7129C35.115 53.7129 33.8692 54.5875 33.3014 55.8419H30.221V40.6694ZM36.5616 59.1799C35.5711 59.1799 34.7653 58.3624 34.7653 57.358C34.7653 56.3523 35.5711 55.5342 36.5616 55.5342C37.5485 55.5342 38.3514 56.3523 38.3514 57.358C38.3514 58.3624 37.5485 59.1799 36.5616 59.1799ZM54.6311 59.1799C53.6406 59.1799 52.8342 58.3624 52.8342 57.358C52.8342 57.2773 52.8474 57.2002 52.8575 57.1225C52.9024 57.0199 52.9281 56.907 52.9329 56.7887C53.1702 56.0628 53.8373 55.5342 54.6311 55.5342C55.6181 55.5342 56.4209 56.3523 56.4209 57.358C56.4209 58.3624 55.6181 59.1799 54.6311 59.1799ZM59.512 55.8419H57.8854C57.3187 54.5875 56.0748 53.7129 54.6311 53.7129C53.1845 53.7129 51.9382 54.5875 51.3703 55.8419H48.752V45.5246H56.5428L59.512 45.4979V55.8419Z" fill="white"/>
<path d="M25.3815 31.9227C28.0015 31.9227 30.5175 32.5029 32.8602 33.6463C33.3079 33.8641 33.8435 33.673 34.0569 33.2202C34.2715 32.7669 34.0838 32.2231 33.6379 32.0052C31.0501 30.7422 28.2723 30.1019 25.3815 30.1019C14.8624 30.1019 6.30469 38.7898 6.30469 49.4694C6.30469 49.9726 6.70639 50.3798 7.20135 50.3798H23.9444C24.4394 50.3798 24.8411 49.9726 24.8411 49.4694C24.8411 48.9663 24.4394 48.5591 23.9444 48.5591H8.12073C8.58878 39.305 16.1518 31.9227 25.3815 31.9227Z" fill="white"/>
<path d="M25.0622 28.3808C31.141 28.3808 36.0864 23.3605 36.0864 17.1901C36.0864 11.0197 31.141 6 25.0622 6C18.9859 6 14.0423 11.0197 14.0423 17.1901C14.0423 23.3605 18.9859 28.3808 25.0622 28.3808ZM25.0622 7.8201C30.1523 7.8201 34.2931 12.0235 34.2931 17.1895C34.2931 22.356 30.1517 26.5595 25.0622 26.5595C19.9746 26.5595 15.8356 22.356 15.8356 17.1895C15.8356 12.0235 19.9746 7.8201 25.0622 7.8201Z" fill="white"/>
</svg>
