<svg width="122" height="122" viewBox="0 0 122 122" fill="none" xmlns="http://www.w3.org/2000/svg">
<path fill-rule="evenodd" clip-rule="evenodd" d="M30.7032 63.742C25.5344 63.742 21.3443 59.6083 21.3443 54.5091C21.3443 49.4098 25.5344 45.2761 30.7032 45.2761C35.8719 45.2761 40.062 49.4098 40.062 54.5091C40.062 59.6083 35.8719 63.742 30.7032 63.742ZM30.7033 60.972C27.0852 60.972 24.1521 58.0784 24.1521 54.5089C24.1521 50.9394 27.0852 48.0458 30.7033 48.0458C34.3214 48.0458 37.2545 50.9394 37.2545 54.5089C37.2545 58.0784 34.3214 60.972 30.7033 60.972Z" fill="#1D1D20"/>
<path d="M55.3103 103.136C55.3103 102.109 54.5666 101.275 53.6471 101.273C45.5909 101.239 15.7077 101.272 7.66585 101.272C6.7463 101.272 6 102.107 6 103.135C6 104.164 6.7463 104.999 7.66585 104.999L53.6445 105C54.5652 105 55.3103 104.165 55.3103 103.136Z" fill="#1D1D20"/>
<path d="M40.1379 67.5687C40.1379 68.4021 39.4438 68.8162 38.9169 68.8162C35.8229 68.8387 25.8469 68.8162 22.7529 68.8162C21.8265 68.8162 21.1724 68.6221 21.1724 67.5696C21.1724 66.7456 21.6992 66.3315 22.7529 66.3315H38.9169C39.4438 66.3315 40.1379 66.7456 40.1379 67.5687Z" fill="#1D1D20"/>
<path d="M12.752 33.7504H48.2617C49.0166 33.7504 49.6277 34.4535 49.6277 35.3221V56.0107C49.6282 70.9469 49.6269 102.381 49.6269 103.428C49.6269 103.792 48.9497 105 48.261 105C42.9901 105 12.752 104.998 12.752 104.998C11.998 104.998 11.3861 104.294 11.3861 103.426V35.3221C11.3861 34.4535 11.998 33.7504 12.752 33.7504ZM14.118 101.855H46.8958V36.8938H14.118V101.855Z" fill="#1D1D20"/>
<path fill-rule="evenodd" clip-rule="evenodd" d="M116 24.4947C116 23.1169 114.868 22 113.471 22H13.5863C12.1897 22 11.0575 23.1169 11.0575 24.4947V29.9831C11.0575 31.361 12.1897 32.4779 13.5863 32.4779H113.471C114.868 32.4779 116 31.361 116 29.9831V24.4947ZM113.274 25.343C113.274 24.6541 112.708 24.0956 112.01 24.0956H93.7158L99.4747 30.3824H112.01C112.708 30.3824 113.274 29.8239 113.274 29.135V25.343ZM95.8726 30.3824H71.8924L66.1335 24.0956H90.2814L90.1753 24.1629L95.8726 30.3824ZM62.6991 24.0956L62.5931 24.1629L68.2903 30.3824H65.4024L59.6436 24.0956H62.6991ZM56.2092 24.0956L56.1031 24.1629L61.8004 30.3824H34.917L29.1582 24.0956H56.2092ZM25.7238 24.0956L25.6177 24.1629L31.315 30.3824H28.0852L22.3264 24.0956H25.7238ZM18.892 24.0956L18.7859 24.1629L24.4832 30.3824H15.0476C14.3493 30.3824 13.7832 29.8239 13.7832 29.135V25.343C13.7832 24.6541 14.3493 24.0956 15.0476 24.0956H18.892Z" fill="#1D1D20"/>
</svg>
