<svg width="122" height="122" viewBox="0 0 122 122" fill="none" xmlns="http://www.w3.org/2000/svg">
<path fill-rule="evenodd" clip-rule="evenodd" d="M71.3464 23.8239C71.3464 29.8017 66.4703 34.6477 60.4554 34.6477C54.4404 34.6477 49.5643 29.8017 49.5643 23.8239C49.5643 17.846 54.4404 13 60.4554 13C66.4703 13 71.3464 17.846 71.3464 23.8239ZM68.0792 23.8239C68.0792 28.0084 64.6659 31.4006 60.4554 31.4006C56.245 31.4006 52.8317 28.0084 52.8317 23.8239C52.8317 19.6394 56.245 16.2472 60.4554 16.2472C64.6659 16.2472 68.0792 19.6394 68.0792 23.8239Z" fill="#1D1D20"/>
<path d="M59.3664 37.9186C59.3664 37.0213 60.0972 36.2951 61.0001 36.2951C61.9018 36.2951 62.6337 37.0213 62.6337 37.9186V107.191C62.6337 108.087 61.9018 108.815 61.0001 108.815C60.0972 108.815 59.3664 108.087 59.3664 107.191V37.9186Z" fill="#1D1D20"/>
<path d="M29.9604 55.7542C29.9604 54.8569 30.6912 54.1307 31.5941 54.1307C45.6163 54.1307 56.6 77.5188 56.6 107.376C56.6 108.273 55.8692 109 54.9663 109C54.0635 109 53.3327 108.273 53.3327 107.376C53.3327 80.2746 43.3771 57.3778 31.5941 57.3778C30.6912 57.3778 29.9604 56.6515 29.9604 55.7542Z" fill="#1D1D20"/>
<path d="M89.8178 54.1307C75.7955 54.1307 64.8119 77.5188 64.8119 107.376C64.8119 108.273 65.5437 109 66.4455 109C67.3473 109 68.0792 108.273 68.0792 107.376C68.0792 80.2746 78.0347 57.3778 89.8178 57.3778C90.7196 57.3778 91.4515 56.6515 91.4515 55.7542C91.4515 54.8569 90.7196 54.1307 89.8178 54.1307Z" fill="#1D1D20"/>
<path fill-rule="evenodd" clip-rule="evenodd" d="M116 55.213C116 61.1908 111.124 66.0368 105.109 66.0368C99.0939 66.0368 94.2178 61.1908 94.2178 55.213C94.2178 49.2351 99.0939 44.3891 105.109 44.3891C111.124 44.3891 116 49.2351 116 55.213ZM112.733 55.2129C112.733 59.3974 109.319 62.7896 105.109 62.7896C100.899 62.7896 97.4852 59.3974 97.4852 55.2129C97.4852 51.0285 100.899 47.6363 105.109 47.6363C109.319 47.6363 112.733 51.0285 112.733 55.2129Z" fill="#1D1D20"/>
<path fill-rule="evenodd" clip-rule="evenodd" d="M16.8911 66.0368C22.9061 66.0368 27.7822 61.1908 27.7822 55.213C27.7822 49.2351 22.9061 44.3891 16.8911 44.3891C10.8761 44.3891 6 49.2351 6 55.213C6 61.1908 10.8761 66.0368 16.8911 66.0368ZM16.8911 62.7896C21.1016 62.7896 24.5149 59.3974 24.5149 55.2129C24.5149 51.0285 21.1016 47.6363 16.8911 47.6363C12.6806 47.6363 9.26736 51.0285 9.26736 55.2129C9.26736 59.3974 12.6806 62.7896 16.8911 62.7896Z" fill="#1D1D20"/>
</svg>
