<svg width="122" height="122" viewBox="0 0 122 122" fill="none" xmlns="http://www.w3.org/2000/svg">
<path d="M74.1688 49.5238L56.8047 60.176C56.2423 60.5211 56.0568 61.3075 56.4072 61.8612C56.7576 62.4149 57.5563 62.5975 58.1187 62.2525L75.4828 51.6003C76.0452 51.2553 76.2307 50.4689 75.8803 49.9152C75.5299 49.3615 74.7312 49.1788 74.1688 49.5238Z" fill="#1D1D20"/>
<path fill-rule="evenodd" clip-rule="evenodd" d="M87.0422 89.7314C84.6532 91.197 84.0111 94.3001 85.461 96.5912C86.159 97.6943 87.2837 98.5357 88.6202 98.776C89.8714 99.0686 91.249 98.8125 92.3582 98.132C94.7472 96.6665 95.3892 93.5633 93.9394 91.2722C92.4896 88.9812 89.4311 88.2659 87.0422 89.7314ZM90.8863 95.6189C90.4597 95.8806 89.9257 95.9726 89.3696 95.8426C88.8136 95.7125 88.3744 95.3929 88.1059 94.9686C87.5153 94.0352 87.7999 92.8005 88.7384 92.2247C89.6769 91.649 90.9281 91.9416 91.5188 92.875C92.1095 93.8084 91.8248 95.0432 90.8863 95.6189Z" fill="#1D1D20"/>
<path fill-rule="evenodd" clip-rule="evenodd" d="M42.4541 66.0641C40.9861 63.7443 41.706 60.6921 44.0621 59.2467L78.1906 38.3103C80.5467 36.8649 83.6467 37.5738 85.1147 39.8935L115.239 87.4969C116.707 89.8167 115.987 92.8689 113.631 94.3143L79.5025 115.251C77.1464 116.696 74.0464 115.987 72.5784 113.668L42.4541 66.0641ZM46.0556 62.397L80.1841 41.4605C80.7731 41.0992 81.5481 41.2764 81.9151 41.8563L112.039 89.4597C112.406 90.0396 112.226 90.8027 111.637 91.164L77.509 112.101C76.92 112.462 76.145 112.285 75.778 111.705L45.6536 64.1013C45.2866 63.5214 45.4666 62.7583 46.0556 62.397Z" fill="#1D1D20"/>
<path fill-rule="evenodd" clip-rule="evenodd" d="M16.5491 39.4051C16.5491 40.4301 17.393 41.2609 18.434 41.2609C18.4404 41.2609 18.4468 41.2609 18.4532 41.2608H64.915C64.9193 41.2609 64.9236 41.2609 64.9279 41.2609C65.9689 41.2609 66.8128 40.43 66.8128 39.4051V17.135C66.8128 16.1101 65.9689 15.2792 64.9279 15.2792L64.9134 15.2793C64.1961 15.2793 36.6838 15.281 18.9718 15.2793C18.898 15.2793 18.8205 15.2777 18.7472 15.2763C18.6119 15.2736 18.491 15.2712 18.434 15.2792C17.393 15.2792 16.5491 16.1101 16.5491 17.1351V39.4051ZM20.3189 37.5492H63.043V18.9909H20.3189L20.3189 37.5492Z" fill="#1D1D20"/>
<path d="M6 7.85585C6 6.8309 6.84389 6.00002 7.88489 6.00002H73.724C74.1418 5.99987 74.5596 6.00073 74.9774 6.00002C76.0184 5.99827 76.8637 6.82773 76.8655 7.85268L76.9255 42.3716C76.9273 43.3965 76.0848 44.2288 75.0439 44.2306C74.0029 44.2323 73.1575 43.4029 73.1557 42.3779L73.099 9.71169H9.76978V100.648H66.1845C67.2254 100.648 68.0693 101.478 68.0693 102.503C68.0693 103.528 67.2254 104.359 66.1845 104.359H7.88611C6.84512 104.359 6.00123 103.528 6.00123 102.503C6.00123 102.454 6.00092 102.405 6.00061 102.356C6.00031 102.307 6 102.257 6 102.208V8.11562C6.00333 8.05757 6.00223 8.00018 6.00111 7.94261C6.00056 7.91377 6 7.88488 6 7.85585Z" fill="#1D1D20"/>
</svg>
